<svg width="35" height="35" viewBox="0 0 35 35" fill="none" xmlns="http://www.w3.org/2000/svg">
<path d="M17 4.5C18.7405 4.5 20.3614 5.1011 21.5439 6.27637C22.719 7.44425 23.5429 9.26032 23.543 11.8447V15.8369L24.4102 15.9521C25.0405 16.0365 25.3857 16.2548 25.5947 16.5244C25.8195 16.8143 26 17.3106 26 18.1592V28.2471C26 29.2249 25.7677 29.7341 25.4961 30.0078C25.2259 30.28 24.7372 30.5 23.8213 30.5H10.1787C9.26285 30.5 8.77411 30.28 8.50391 30.0078C8.23227 29.7341 8 29.2249 8 28.2471V18.1592C8 17.3106 8.18046 16.8135 8.40527 16.5234C8.61442 16.2539 8.96064 16.0366 9.59082 15.9521L10.457 15.8359V11.8447C10.4571 9.26027 11.2811 7.44422 12.4561 6.27637C13.6385 5.1012 15.2592 4.5 17 4.5ZM10.249 15.9785C9.8104 15.9785 9.24492 16.067 8.80957 16.5039C8.37643 16.9387 8.27441 17.5151 8.27441 18.0078V28.3848C8.27445 28.8808 8.37522 29.4567 8.79883 29.8955C9.23136 30.3435 9.79882 30.4414 10.249 30.4414H23.751C24.2026 30.4414 24.7768 30.3463 25.2109 29.8916C25.6333 29.4491 25.7255 28.8703 25.7256 28.3848V18.0078C25.7256 17.5261 25.6319 16.9474 25.2002 16.5088C24.7634 16.0652 24.1915 15.9785 23.751 15.9785H10.249ZM17 4.61328C15.2928 4.61328 13.7035 5.23116 12.5439 6.4541C11.3851 7.67646 10.7315 9.42153 10.7314 11.543V15.9053H23.2686V11.543C23.2685 9.41983 22.6105 7.67469 21.4502 6.45312C20.2897 5.2315 18.701 4.61328 17 4.61328Z" fill="#0C1822" stroke="#0C1822" stroke-width="2"/>
</svg>
