<svg width="35" height="35" viewBox="0 0 35 35" fill="none" xmlns="http://www.w3.org/2000/svg">
<path d="M17.5007 13.125C18.661 13.125 19.7738 13.5859 20.5942 14.4064C21.4147 15.2269 21.8757 16.3397 21.8757 17.5C21.8757 18.6603 21.4147 19.7731 20.5942 20.5936C19.7738 21.4141 18.661 21.875 17.5007 21.875C16.3403 21.875 15.2275 21.4141 14.4071 20.5936C13.5866 19.7731 13.1257 18.6603 13.1257 17.5C13.1257 16.3397 13.5866 15.2269 14.4071 14.4064C15.2275 13.5859 16.3403 13.125 17.5007 13.125ZM17.5007 6.5625C24.7923 6.5625 31.0194 11.0979 33.5423 17.5C31.0194 23.9021 24.7923 28.4375 17.5007 28.4375C10.209 28.4375 3.9819 23.9021 1.45898 17.5C3.9819 11.0979 10.209 6.5625 17.5007 6.5625ZM4.63815 17.5C5.81685 19.9067 7.64714 21.9344 9.92093 23.3527C12.1947 24.7709 14.8208 25.5228 17.5007 25.5228C20.1805 25.5228 22.8066 24.7709 25.0804 23.3527C27.3542 21.9344 29.1844 19.9067 30.3631 17.5C29.1844 15.0933 27.3542 13.0656 25.0804 11.6473C22.8066 10.2291 20.1805 9.47724 17.5007 9.47724C14.8208 9.47724 12.1947 10.2291 9.92093 11.6473C7.64714 13.0656 5.81685 15.0933 4.63815 17.5Z" fill="#0C1822"/>
</svg>
