<svg width="40" height="40" viewBox="0 0 40 40" fill="none" xmlns="http://www.w3.org/2000/svg">
<path d="M20.7218 5.00024C14.5835 5.00024 9.21846 8.38524 6.69012 13.4802C5.57961 15.6241 5 18.0033 5 20.4177C5 22.8322 5.57961 25.2113 6.69012 27.3552C9.21846 32.4486 14.5835 35.8336 20.7218 35.8336C24.9551 35.8336 28.5885 34.4552 31.1285 32.1269C35.2685 28.5052 36.4368 22.7952 35.5585 17.6469C35.542 17.5501 35.4918 17.4622 35.4167 17.3987C35.3417 17.3353 35.2467 17.3004 35.1485 17.3002H20.7218C20.6113 17.3002 20.5053 17.3441 20.4272 17.4223C20.349 17.5004 20.3051 17.6064 20.3051 17.7169V23.2669C20.3051 23.4969 20.4918 23.6836 20.7218 23.6836H28.6685C28.3918 24.9169 27.5235 26.5952 25.8601 27.7219L25.8468 27.7302C24.7051 28.5669 22.9551 29.1502 20.7218 29.1502C15.8285 29.1502 11.9301 25.0586 11.9301 20.2669C11.9301 15.6286 16.0501 11.5336 20.7218 11.5336C23.5051 11.5336 25.2551 12.6719 26.4368 13.6836C26.5158 13.7512 26.6173 13.7867 26.7212 13.7834C26.8251 13.78 26.924 13.7378 26.9985 13.6652L31.2951 9.46524C31.3364 9.42496 31.3689 9.37655 31.3905 9.32307C31.4121 9.26959 31.4224 9.21221 31.4206 9.15455C31.4189 9.0969 31.4052 9.04023 31.3805 8.98813C31.3557 8.93604 31.3204 8.88965 31.2768 8.85191C28.5951 6.53858 24.9701 5.00024 20.7218 5.00024Z" fill="#0C1822"/>
</svg>
