<svg width="27" height="23" viewBox="0 0 27 23" fill="none" xmlns="http://www.w3.org/2000/svg">
<path d="M26.9313 12.099L23.0741 2.51562C22.9892 2.30453 22.8315 2.13033 22.6293 2.02412C22.427 1.91791 22.1934 1.88662 21.97 1.93583L14.4643 3.59375V0.958333C14.4643 0.704167 14.3627 0.460412 14.1819 0.28069C14.001 0.100967 13.7557 0 13.5 0C13.2443 0 12.999 0.100967 12.8181 0.28069C12.6373 0.460412 12.5357 0.704167 12.5357 0.958333V4.0226L4.61171 5.77276C4.45893 5.8063 4.31666 5.87628 4.19717 5.97667C4.07768 6.07705 3.98457 6.20482 3.92586 6.34896V6.35615L0.0687238 15.9323C0.0225817 16.0465 -0.00075364 16.1686 1.85562e-05 16.2917C1.85562e-05 19.084 2.95796 20.125 4.82144 20.125C6.68492 20.125 9.64286 19.084 9.64286 16.2917C9.64363 16.1686 9.6203 16.0465 9.57416 15.9323L6.13769 7.39953L12.5357 5.98958V21.0833H10.6071C10.3514 21.0833 10.1061 21.1843 9.92529 21.364C9.74446 21.5437 9.64286 21.7875 9.64286 22.0417C9.64286 22.2958 9.74446 22.5396 9.92529 22.7193C10.1061 22.899 10.3514 23 10.6071 23H16.3929C16.6486 23 16.8939 22.899 17.0747 22.7193C17.2555 22.5396 17.3571 22.2958 17.3571 22.0417C17.3571 21.7875 17.2555 21.5437 17.0747 21.364C16.8939 21.1843 16.6486 21.0833 16.3929 21.0833H14.4643V5.56073L20.6116 4.20469L17.4258 12.099C17.3797 12.2132 17.3564 12.3352 17.3571 12.4583C17.3571 15.2507 20.3151 16.2917 22.1786 16.2917C24.042 16.2917 27 15.2507 27 12.4583C27.0008 12.3352 26.9774 12.2132 26.9313 12.099ZM4.82144 18.2083C3.91381 18.2083 2.07805 17.7759 1.93702 16.4546L4.82144 9.28865L7.70586 16.4546C7.56483 17.7759 5.72907 18.2083 4.82144 18.2083ZM22.1786 14.375C21.2709 14.375 19.4352 13.9426 19.2941 12.6213L22.1786 5.45531L25.063 12.6213C24.9219 13.9426 23.0862 14.375 22.1786 14.375Z" fill="#FAB84C"/>
</svg>
