<svg width="30" height="30" viewBox="0 0 30 30" fill="none" xmlns="http://www.w3.org/2000/svg">
<path fill-rule="evenodd" clip-rule="evenodd" d="M13.75 21.25C14.7349 21.25 15.7102 21.056 16.6201 20.6791C17.5301 20.3022 18.3569 19.7497 19.0533 19.0533C19.7497 18.3569 20.3022 17.5301 20.6791 16.6201C21.056 15.7102 21.25 14.7349 21.25 13.75C21.25 12.7651 21.056 11.7898 20.6791 10.8799C20.3022 9.96993 19.7497 9.14314 19.0533 8.4467C18.3569 7.75026 17.5301 7.19781 16.6201 6.8209C15.7102 6.44399 14.7349 6.25 13.75 6.25C11.7609 6.25 9.85322 7.04018 8.4467 8.4467C7.04018 9.85322 6.25 11.7609 6.25 13.75C6.25 15.7391 7.04018 17.6468 8.4467 19.0533C9.85322 20.4598 11.7609 21.25 13.75 21.25ZM13.75 23.75C16.4022 23.75 18.9457 22.6964 20.8211 20.8211C22.6964 18.9457 23.75 16.4022 23.75 13.75C23.75 11.0978 22.6964 8.5543 20.8211 6.67893C18.9457 4.80357 16.4022 3.75 13.75 3.75C11.0978 3.75 8.5543 4.80357 6.67893 6.67893C4.80357 8.5543 3.75 11.0978 3.75 13.75C3.75 16.4022 4.80357 18.9457 6.67893 20.8211C8.5543 22.6964 11.0978 23.75 13.75 23.75Z" fill="#FAB84C"/>
<path fill-rule="evenodd" clip-rule="evenodd" d="M19.1497 19.1124C19.385 18.8789 19.7033 18.7483 20.0348 18.7495C20.3662 18.7507 20.6837 18.8835 20.9172 19.1186L25.886 24.1186C26.1131 24.355 26.2383 24.6711 26.2345 24.9989C26.2308 25.3267 26.0985 25.6399 25.866 25.8711C25.6336 26.1022 25.3196 26.2328 24.9918 26.2347C24.664 26.2365 24.3486 26.1096 24.1135 25.8811L19.1447 20.8811C18.9111 20.6461 18.7803 20.3278 18.7813 19.9963C18.7822 19.6649 18.9147 19.3474 19.1497 19.1136V19.1124Z" fill="#FAB84C"/>
</svg>
