<svg width="45" height="45" viewBox="0 0 45 45" fill="none" xmlns="http://www.w3.org/2000/svg">
<rect x="0.5" y="0.5" width="44" height="44" rx="9.5" fill="white"/>
<rect x="0.5" y="0.5" width="44" height="44" rx="9.5" stroke="#F0F0F0"/>
<path d="M14.2199 25.7199L21.7199 18.2199C21.7896 18.1502 21.8723 18.0949 21.9634 18.0571C22.0544 18.0194 22.152 18 22.2506 18C22.3491 18 22.4467 18.0194 22.5378 18.0571C22.6288 18.0949 22.7115 18.1502 22.7812 18.2199L30.2812 25.7199C30.4219 25.8607 30.501 26.0515 30.501 26.2506C30.501 26.4496 30.4219 26.6405 30.2812 26.7812C30.1405 26.9219 29.9496 27.001 29.7506 27.001C29.5515 27.001 29.3607 26.9219 29.2199 26.7812L22.2506 19.8109L15.2812 26.7812C15.2115 26.8509 15.1288 26.9061 15.0377 26.9439C14.9467 26.9816 14.8491 27.001 14.7506 27.001C14.652 27.001 14.5544 26.9816 14.4634 26.9439C14.3723 26.9061 14.2896 26.8509 14.2199 26.7812C14.1503 26.7115 14.095 26.6288 14.0573 26.5377C14.0196 26.4467 14.0001 26.3491 14.0001 26.2506C14.0001 26.152 14.0196 26.0544 14.0573 25.9634C14.095 25.8723 14.1503 25.7896 14.2199 25.7199Z" fill="black"/>
</svg>
