<svg width="35" height="35" viewBox="0 0 35 35" fill="none" xmlns="http://www.w3.org/2000/svg">
<path d="M17.5016 29.3996C10.9216 29.3996 5.60156 24.0796 5.60156 17.4996C5.60156 10.9196 10.9216 5.59961 17.5016 5.59961C24.0816 5.59961 29.4016 10.9196 29.4016 17.4996C29.4016 24.0796 24.0816 29.3996 17.5016 29.3996ZM17.5016 6.99961C11.6916 6.99961 7.00156 11.6896 7.00156 17.4996C7.00156 23.3096 11.6916 27.9996 17.5016 27.9996C23.3116 27.9996 28.0016 23.3096 28.0016 17.4996C28.0016 11.6896 23.3116 6.99961 17.5016 6.99961Z" fill="#3D6A8A"/>
<path d="M17.7119 24.29L10.9219 17.5L17.7119 10.71L18.6919 11.69L12.8819 17.5L18.6919 23.31L17.7119 24.29Z" fill="#3D6A8A"/>
<path d="M11.8984 16.7998H23.7984V18.1998H11.8984V16.7998Z" fill="#3D6A8A"/>
</svg>
