<svg width="25" height="25" viewBox="0 0 25 25" fill="none" xmlns="http://www.w3.org/2000/svg">
<path d="M14.2158 3.75C14.5822 3.75 15.0057 3.76905 15.374 4.01562C15.7199 4.24721 15.9117 4.61803 16.0576 4.89258L17.043 6.75H19.7998C20.6777 6.75 21.413 6.99992 21.9102 7.5957C22.3787 8.15739 22.5226 8.8975 22.5498 9.61816L22.6689 13.0703C22.6908 13.7147 22.7108 14.316 22.7256 14.7559C22.733 14.9756 22.739 15.1556 22.7432 15.2803C22.7453 15.3426 22.7469 15.3918 22.748 15.4248C22.7486 15.441 22.7487 15.4535 22.749 15.4619C22.7492 15.4661 22.749 15.4695 22.749 15.4717L22.75 15.4746L22.7754 16.25H22.2676L22.248 16.5479V16.5527C22.2478 16.5561 22.2475 16.5618 22.2471 16.5684C22.2462 16.5815 22.2448 16.6008 22.2432 16.626C22.2399 16.6768 22.2355 16.7515 22.2295 16.8457C22.2176 17.0343 22.2012 17.3024 22.1816 17.6191C22.1426 18.2528 22.0922 19.0815 22.0488 19.8633C22.0298 20.2057 21.9692 20.8134 21.5869 21.3389C21.1676 21.9151 20.4742 22.25 19.5 22.25H4.49902C3.52561 22.25 2.83129 21.9166 2.41113 21.3408C2.02722 20.8147 1.96722 20.206 1.9502 19.8584C1.91295 19.1012 1.86351 18.2749 1.82324 17.6367C1.80312 17.3178 1.78521 17.0461 1.77246 16.8545C1.76609 16.7587 1.76035 16.6827 1.75684 16.6309C1.7551 16.6053 1.75384 16.5856 1.75293 16.5723C1.75247 16.5656 1.75219 16.56 1.75195 16.5566V16.5518L1.73145 16.25H1.22559L1.25 15.4766V15.4727C1.25007 15.4705 1.25084 15.4671 1.25098 15.4629C1.25125 15.4543 1.25142 15.4414 1.25195 15.4248C1.25302 15.3914 1.25482 15.3423 1.25684 15.2793C1.26088 15.1529 1.26626 14.9705 1.27344 14.748C1.2878 14.3028 1.30766 13.6949 1.3291 13.0459C1.37193 11.7495 1.42156 10.2823 1.44922 9.61523C1.47902 8.89674 1.62266 8.15693 2.08984 7.5957C2.58628 6.99947 3.32075 6.75 4.19922 6.75H6.95703C7.38567 5.94039 7.79991 5.15928 7.94141 4.89258L7.94238 4.8916C8.08838 4.61764 8.27971 4.24701 8.625 4.01562C8.99325 3.76889 9.41677 3.75 9.7832 3.75H14.2158ZM10.373 6.6543C10.3579 6.6809 10.3406 6.712 10.3203 6.75H13.6768C13.6565 6.71187 13.639 6.68091 13.624 6.6543C13.5998 6.65344 13.57 6.65039 13.5332 6.65039H10.4658C10.428 6.65039 10.3976 6.6534 10.373 6.6543ZM11.75 17.75H12.25V14.25H11.75V17.75Z" stroke="#FAB84C" stroke-width="1.5"/>
</svg>
