<svg width="24" height="24" viewBox="0 0 24 24" fill="none" xmlns="http://www.w3.org/2000/svg">
<path d="M9.20654 8.7781L8.38379 9.60085L9.21854 10.4341L10.042 9.6091L9.20654 8.7781ZM10.573 10.1401L9.74804 10.9651L10.582 11.7976L11.4078 10.9718L10.573 10.1401ZM11.95 13.1663L11.1123 12.3286L11.9388 11.5006L12.7788 12.3376L11.95 13.1663ZM11.9395 10.4416L11.1033 9.6091L11.9418 8.77135L12.7758 9.60385L11.9395 10.4416ZM12.7795 6.8731L11.947 6.0376L11.107 6.8776L11.9418 7.7101L12.7795 6.8731ZM14.1438 8.2366L13.3068 9.0736L12.4728 8.2411L13.3098 7.40335L14.1438 8.2366ZM13.837 9.60385L14.6763 10.4401L15.5118 9.6046L14.674 8.76685L13.837 9.60385ZM10.576 7.40785L11.4108 8.24035L10.5723 9.0796L9.73754 8.2471L10.576 7.40785ZM12.4698 10.9703L13.309 11.8073L14.146 10.9703L13.3068 10.1341L12.4698 10.9703Z" fill="#102E44"/>
<path d="M7.19629 9.78005C7.19788 8.51531 7.70089 7.30281 8.59505 6.40837C9.48921 5.51392 10.7016 5.01053 11.9663 5.00854C13.2311 5.00993 14.4436 5.51304 15.3379 6.40745C16.2322 7.30186 16.7351 8.51451 16.7363 9.77929C16.7349 11.044 16.2319 12.2564 15.3377 13.1507C14.4434 14.0449 13.2309 14.5479 11.9663 14.5493C10.7016 14.5479 9.48917 14.0449 8.59492 13.1507C7.70068 12.2564 7.19768 11.044 7.19629 9.77929M15.987 9.77929C15.987 9.48304 15.9495 9.19729 15.8895 8.91979L15.2055 8.2328L15.5138 7.9253C15.3953 7.69806 15.2552 7.4828 15.0953 7.28255L14.6745 7.70405L13.8405 6.87004L14.2425 6.46804C14.0275 6.32051 13.799 6.19369 13.56 6.0893L13.3103 6.33979L12.8243 5.85379C12.5468 5.79379 12.2618 5.75705 11.967 5.75705C11.6505 5.75705 11.346 5.80354 11.0505 5.87254L10.5765 6.34654L10.3388 6.10954C10.0993 6.21654 9.87354 6.34454 9.66154 6.49354L10.0455 6.87829L9.20554 7.7183L8.80804 7.32079C8.65104 7.52279 8.51379 7.7388 8.39629 7.96879L8.67754 8.24779L8.06254 8.8628C7.99279 9.15755 7.94704 9.4628 7.94704 9.77854C7.94704 9.90604 7.96429 10.0275 7.98154 10.1498L7.99729 10.2705L8.68954 10.9628L8.28079 11.3723C8.38579 11.6133 8.51204 11.8408 8.65954 12.0548L9.21979 11.4938L10.0538 12.3278L9.47404 12.9075C9.67404 13.067 9.88804 13.2065 10.116 13.326L10.584 12.858L11.421 13.6958L11.3768 13.74L11.4248 13.7468C11.6033 13.773 11.7825 13.7993 11.9678 13.7993C12.1373 13.7993 12.3 13.7753 12.4628 13.752L12.528 13.743L12.4808 13.6958L13.3103 12.8663L13.7888 13.3418C14.0183 13.2248 14.2338 13.087 14.4353 12.9285L13.8405 12.336L14.6768 11.4998L15.2558 12.0788C15.4043 11.8653 15.5318 11.6393 15.6383 11.4008L15.207 10.9695L15.9413 10.2353L15.9578 10.1033C15.9728 9.99679 15.9878 9.88954 15.9878 9.77854" fill="#102E44"/>
<path d="M20.396 8.3385C21.029 7.377 21.1715 6.35775 20.7388 5.4735C20.3068 4.5825 19.4098 4.06575 18.2548 3.972C18.2623 2.82225 17.8273 1.8915 16.9873 1.38825C16.2178 0.921 15.29 0.92025 14.354 1.341C13.7885 0.4935 13.0093 0.00975 12.1265 0H12.0545C11.111 0 10.2763 0.54 9.68079 1.4715C8.66529 0.9585 7.64829 0.927 6.82704 1.443C5.97579 1.97475 5.55504 2.934 5.59104 4.10775C4.41879 4.20825 3.51354 4.74225 3.07854 5.6625C2.66454 6.5595 2.83104 7.5795 3.48579 8.53425C2.58879 9.255 2.13804 10.1798 2.27379 11.1518C2.41104 12.1305 3.10779 12.8993 4.18479 13.347C3.82329 14.4405 3.94779 15.4643 4.58979 16.2075C5.24004 16.9575 6.24279 17.2253 7.38729 17.0138C7.67979 18.1237 8.33979 18.9128 9.28404 19.1873C9.50854 19.2512 9.73354 19.2833 9.95904 19.2833C10.4128 19.2833 10.8635 19.1423 11.2955 18.8978V21.6585C10.73 20.2755 9.37629 19.2908 7.79304 19.2908H6.24279C6.12204 19.2908 6.03279 19.3883 6.03279 19.5007V19.8158C6.03279 21.6157 7.49529 23.0783 9.22779 23.0933L11.387 23.1C11.4121 23.1001 11.4368 23.095 11.4598 23.085H12.797V23.0798C12.8253 23.0926 12.856 23.0995 12.887 23.1H14.4395C16.4645 23.1 18.1145 21.4875 18.2203 19.4925C18.222 19.4667 18.2185 19.4409 18.2099 19.4165C18.2013 19.3921 18.1878 19.3698 18.1702 19.3508C18.1526 19.3319 18.1314 19.3167 18.1078 19.3062C18.0841 19.2958 18.0586 19.2902 18.0328 19.29L15.8728 19.2967C14.4328 19.3088 13.1803 20.3197 12.7978 21.6937V18.8625C13.4555 19.2277 14.1553 19.335 14.834 19.1295C15.7888 18.843 16.4435 18.0345 16.7158 16.902C17.8438 17.085 18.8338 16.8053 19.463 16.0575C20.1058 15.2963 20.2123 14.2597 19.8215 13.1595C20.8745 12.693 21.5488 11.916 21.6665 10.9432C21.785 9.966 21.314 9.04575 20.3968 8.33925M17.4523 12.1425C18.4423 13.2525 18.8398 14.4675 18.3148 15.09C17.7973 15.705 16.5455 15.525 15.2848 14.7525C15.5098 16.2232 15.1723 17.46 14.3998 17.6925C13.6273 17.925 12.6755 17.0925 12.038 15.7575C11.423 17.115 10.478 17.97 9.69804 17.745C8.92554 17.52 8.57304 16.2975 8.76804 14.835C7.51554 15.6375 6.25554 15.84 5.72304 15.225C5.19054 14.61 5.56554 13.4025 6.52554 12.2775C5.03304 12.2625 3.87054 11.745 3.75804 10.9425C3.64554 10.14 4.62054 9.33 6.03804 8.91C4.79304 8.0925 4.10304 7.02 4.44054 6.2925C4.79304 5.5425 6.09804 5.3925 7.55304 5.8575C6.93054 4.47 6.92304 3.15 7.62054 2.715C8.28804 2.295 9.40479 2.8275 10.3498 3.915C10.6048 2.4975 11.2873 1.47825 12.083 1.5C12.818 1.5075 13.433 2.40825 13.6805 3.6825C14.5738 2.73075 15.578 2.2875 16.208 2.67C16.898 3.08325 16.9205 4.35075 16.3505 5.71575C17.768 5.26575 19.0355 5.40075 19.388 6.12825C19.7405 6.84825 19.073 7.92825 17.8505 8.76075C19.283 9.15825 20.273 9.96075 20.1755 10.7633C20.078 11.5658 18.9305 12.0975 17.453 12.1432" fill="#102E44"/>
</svg>
