<svg width="20" height="20" viewBox="0 0 20 20" fill="none" xmlns="http://www.w3.org/2000/svg">
<path d="M6.43362 15.1824C6.49167 15.1242 6.56064 15.078 6.63657 15.0465C6.71251 15.015 6.79391 14.9987 6.87612 14.9987C6.95833 14.9987 7.03973 15.015 7.11566 15.0465C7.19159 15.078 7.26056 15.1242 7.31862 15.1824L8.75112 16.6161V11.8749C8.75112 11.7091 8.81697 11.5501 8.93418 11.4329C9.05139 11.3157 9.21036 11.2499 9.37612 11.2499C9.54188 11.2499 9.70085 11.3157 9.81806 11.4329C9.93527 11.5501 10.0011 11.7091 10.0011 11.8749V16.6161L11.4336 15.1824C11.551 15.065 11.7101 14.9991 11.8761 14.9991C12.0421 14.9991 12.2013 15.065 12.3186 15.1824C12.436 15.2997 12.5019 15.4589 12.5019 15.6249C12.5019 15.7908 12.436 15.95 12.3186 16.0674L9.81862 18.5674C9.76056 18.6256 9.69159 18.6717 9.61566 18.7033C9.53973 18.7348 9.45833 18.751 9.37612 18.751C9.29391 18.751 9.21251 18.7348 9.13657 18.7033C9.06064 18.6717 8.99167 18.6256 8.93362 18.5674L6.43362 16.0674C6.37541 16.0093 6.32923 15.9403 6.29773 15.8644C6.26622 15.7885 6.25 15.7071 6.25 15.6249C6.25 15.5427 6.26622 15.4612 6.29773 15.3853C6.32923 15.3094 6.37541 15.2404 6.43362 15.1824ZM6.43362 4.81736C6.37541 4.7593 6.32923 4.69033 6.29773 4.6144C6.26622 4.53847 6.25 4.45707 6.25 4.37486C6.25 4.29265 6.26622 4.21125 6.29773 4.13532C6.32923 4.05939 6.37541 3.99042 6.43362 3.93236L8.93362 1.43236C8.99167 1.37416 9.06064 1.32798 9.13657 1.29647C9.21251 1.26496 9.29391 1.24874 9.37612 1.24874C9.45833 1.24874 9.53973 1.26496 9.61566 1.29647C9.69159 1.32798 9.76056 1.37416 9.81862 1.43236L12.3186 3.93236C12.436 4.04972 12.5019 4.20889 12.5019 4.37486C12.5019 4.54083 12.436 4.7 12.3186 4.81736C12.2013 4.93472 12.0421 5.00065 11.8761 5.00065C11.7101 5.00065 11.551 4.93472 11.4336 4.81736L10.0011 3.38361V8.12486C10.0011 8.29062 9.93527 8.44959 9.81806 8.5668C9.70085 8.68401 9.54188 8.74986 9.37612 8.74986C9.21036 8.74986 9.05139 8.68401 8.93418 8.5668C8.81697 8.44959 8.75112 8.29062 8.75112 8.12486V3.38361L7.31862 4.81736C7.26056 4.87556 7.19159 4.92174 7.11566 4.95325C7.03973 4.98476 6.95833 5.00098 6.87612 5.00098C6.79391 5.00098 6.71251 4.98476 6.63657 4.95325C6.56064 4.92174 6.49167 4.87556 6.43362 4.81736Z" fill="#102E44"/>
</svg>
