<svg width="30" height="30" viewBox="0 0 30 30" fill="none" xmlns="http://www.w3.org/2000/svg">
<path d="M9.33621 10.7906C8.93839 10.7906 8.55685 10.6326 8.27555 10.3513C7.99425 10.07 7.83621 9.68842 7.83621 9.2906C7.83621 8.89277 7.99425 8.51124 8.27555 8.22994C8.55685 7.94863 8.93839 7.7906 9.33621 7.7906C9.73403 7.7906 10.1156 7.94863 10.3969 8.22994C10.6782 8.51124 10.8362 8.89277 10.8362 9.2906C10.8362 9.68842 10.6782 10.07 10.3969 10.3513C10.1156 10.6326 9.73403 10.7906 9.33621 10.7906ZM13.6412 3.2906C14.038 3.28791 14.4313 3.36395 14.7985 3.51432C15.1656 3.66469 15.4993 3.88639 15.7802 4.1666L25.8032 14.1641C26.0823 14.4425 26.3038 14.7732 26.4551 15.1373C26.6063 15.5014 26.6843 15.8917 26.6846 16.286C26.6848 16.6802 26.6074 17.0707 26.4567 17.435C26.306 17.7993 26.0849 18.1303 25.8062 18.4091L18.3827 25.8311C17.8201 26.3935 17.0572 26.7095 16.2617 26.7095C15.4662 26.7095 14.7033 26.3935 14.1407 25.8311L4.19421 15.8861C3.9149 15.6069 3.69347 15.2752 3.54263 14.9102C3.39179 14.5452 3.3145 14.154 3.31521 13.7591L3.32721 6.3341C3.32838 5.54285 3.64209 4.78411 4.20004 4.22307C4.75798 3.66203 5.51498 3.34413 6.30621 3.3386L13.6412 3.2906ZM14.7212 5.2286C14.5808 5.08849 14.4139 4.97764 14.2303 4.90246C14.0468 4.82728 13.8501 4.78925 13.6517 4.7906L6.31671 4.8386C5.92097 4.84137 5.54235 5.00042 5.26336 5.2811C4.98436 5.56178 4.82759 5.94134 4.82721 6.3371L4.81521 13.7621C4.81505 13.9593 4.85379 14.1546 4.92921 14.3369C5.00462 14.5191 5.11523 14.6847 5.25471 14.8241L15.1997 24.7706C15.339 24.9101 15.5045 25.0207 15.6865 25.0962C15.8686 25.1717 16.0638 25.2105 16.261 25.2105C16.4581 25.2105 16.6533 25.1717 16.8354 25.0962C17.0175 25.0207 17.1829 24.9101 17.3222 24.7706L24.7457 17.3486C24.8851 17.2092 24.9956 17.0437 25.071 16.8615C25.1463 16.6794 25.185 16.4842 25.1849 16.287C25.1848 16.0899 25.1458 15.8948 25.0701 15.7127C24.9945 15.5307 24.8838 15.3653 24.7442 15.2261L14.7212 5.2286Z" fill="#3D6A8A"/>
</svg>
