<svg width="40" height="40" viewBox="0 0 40 40" fill="none" xmlns="http://www.w3.org/2000/svg">
<path d="M8.50014 22C8.30316 22 8.1081 22.0388 7.92612 22.1142C7.74413 22.1896 7.57877 22.3001 7.43948 22.4393C7.30019 22.5786 7.1897 22.744 7.11432 22.926C7.03894 23.108 7.00014 23.303 7.00014 23.5C7.00014 23.697 7.03894 23.892 7.11432 24.074C7.1897 24.256 7.30019 24.4214 7.43948 24.5607C7.57877 24.6999 7.74413 24.8104 7.92612 24.8858C8.1081 24.9612 8.30316 25 8.50014 25V22ZM16.5001 25C16.6971 25 16.8922 24.9612 17.0742 24.8858C17.2562 24.8104 17.4215 24.6999 17.5608 24.5607C17.7001 24.4214 17.8106 24.256 17.886 24.074C17.9613 23.892 18.0001 23.697 18.0001 23.5C18.0001 23.303 17.9613 23.108 17.886 22.926C17.8106 22.744 17.7001 22.5786 17.5608 22.4393C17.4215 22.3001 17.2562 22.1896 17.0742 22.1142C16.8922 22.0388 16.6971 22 16.5001 22V25ZM5.06014 29.58C5.00492 29.7691 4.98749 29.9672 5.00884 30.1631C5.03018 30.3589 5.0899 30.5486 5.18457 30.7214C5.27924 30.8942 5.40701 31.0466 5.56058 31.17C5.71416 31.2934 5.89054 31.3853 6.07964 31.4405C6.26874 31.4957 6.46687 31.5132 6.66271 31.4918C6.85855 31.4705 7.04827 31.4107 7.22104 31.3161C7.3938 31.2214 7.54622 31.0936 7.66961 30.9401C7.79299 30.7865 7.88492 30.6101 7.94014 30.421L5.06014 29.58ZM17.0601 30.421C17.1154 30.6101 17.2073 30.7865 17.3307 30.9401C17.4541 31.0936 17.6065 31.2214 17.7792 31.3161C17.952 31.4107 18.1417 31.4705 18.3376 31.4918C18.5334 31.5132 18.7315 31.4957 18.9206 31.4405C19.1097 31.3853 19.2861 31.2934 19.4397 31.17C19.5933 31.0466 19.721 30.8942 19.8157 30.7214C19.9104 30.5486 19.9701 30.3589 19.9914 30.1631C20.0128 29.9672 19.9954 29.7691 19.9401 29.58L17.0601 30.421ZM8.50014 25H16.5001V22H8.50014V25ZM10.8526 9.735L5.06014 29.58L7.94014 30.42L13.7326 10.576L10.8526 9.735ZM11.2676 10.576L17.0601 30.42L19.9401 29.579L14.1476 9.735L11.2676 10.576ZM12.5001 11.5C12.2224 11.4998 11.9523 11.4097 11.7301 11.2432C11.5079 11.0766 11.3457 10.8425 11.2676 10.576L14.1476 9.7355C14.0438 9.37896 13.8271 9.06575 13.53 8.84295C13.2329 8.62015 12.8715 8.49981 12.5001 8.5V11.5ZM13.7326 10.576C13.6546 10.8425 13.4924 11.0766 13.2702 11.2432C13.048 11.4097 12.7778 11.4998 12.5001 11.5V8.5C12.1289 8.49977 11.7675 8.62005 11.4704 8.84275C11.1733 9.06545 10.9566 9.37855 10.8526 9.735L13.7326 10.576ZM33.5001 22H35.0001C35.0001 21.6022 34.8421 21.2206 34.5608 20.9393C34.2795 20.658 33.898 20.5 33.5001 20.5V22ZM32.0001 30C32.0001 30.3978 32.1582 30.7794 32.4395 31.0607C32.7208 31.342 33.1023 31.5 33.5001 31.5C33.898 31.5 34.2795 31.342 34.5608 31.0607C34.8421 30.7794 35.0001 30.3978 35.0001 30H32.0001ZM35.0001 24.5C35.0001 24.1022 34.8421 23.7206 34.5608 23.4393C34.2795 23.158 33.898 23 33.5001 23C33.1023 23 32.7208 23.158 32.4395 23.4393C32.1582 23.7206 32.0001 24.1022 32.0001 24.5H35.0001ZM32.0001 22C32.0001 22.3978 32.1582 22.7794 32.4395 23.0607C32.7208 23.342 33.1023 23.5 33.5001 23.5C33.898 23.5 34.2795 23.342 34.5608 23.0607C34.8421 22.7794 35.0001 22.3978 35.0001 22H32.0001ZM25.5001 14.5C25.1023 14.5 24.7208 14.658 24.4395 14.9393C24.1582 15.2206 24.0001 15.6022 24.0001 16C24.0001 16.3978 24.1582 16.7794 24.4395 17.0607C24.7208 17.342 25.1023 17.5 25.5001 17.5V14.5ZM23.0001 26C23.0001 25.337 23.2635 24.7011 23.7324 24.2322C24.2012 23.7634 24.8371 23.5 25.5001 23.5V20.5C22.4626 20.5 20.0001 22.9625 20.0001 26H23.0001ZM25.5001 28.5C24.8371 28.5 24.2012 28.2366 23.7324 27.7678C23.2635 27.2989 23.0001 26.663 23.0001 26H20.0001C20.0001 29.0375 22.4626 31.5 25.5001 31.5V28.5ZM28.0001 28.5H25.5001V31.5H28.0001V28.5ZM32.0001 24.5C32.0001 25.5609 31.5787 26.5783 30.8286 27.3284C30.0784 28.0786 29.061 28.5 28.0001 28.5V31.5C31.8661 31.5 35.0001 28.366 35.0001 24.5H32.0001ZM32.0001 22V24.5H35.0001V22H32.0001ZM25.5001 23.5H33.5001V20.5H25.5001V23.5ZM35.0001 30V24.5H32.0001V30H35.0001ZM35.0001 22V21.5H32.0001V22H35.0001ZM28.0001 14.5H25.5671V17.5H28.0001V14.5ZM25.5671 14.5H25.5001V17.5H25.5671V14.5ZM35.0001 21.5C35.0001 17.634 31.8661 14.5 28.0001 14.5V17.5C29.061 17.5 30.0784 17.9214 30.8286 18.6716C31.5787 19.4217 32.0001 20.4391 32.0001 21.5H35.0001Z" fill="#FAB84C"/>
</svg>
