<svg width="30" height="30" viewBox="0 0 30 30" fill="none" xmlns="http://www.w3.org/2000/svg">
<path d="M6.37511 16.5C6.22737 16.5 6.08108 16.5291 5.94459 16.5856C5.8081 16.6422 5.68408 16.725 5.57961 16.8295C5.47514 16.934 5.39228 17.058 5.33574 17.1945C5.2792 17.331 5.25011 17.4773 5.25011 17.625C5.25011 17.7727 5.2792 17.919 5.33574 18.0555C5.39228 18.192 5.47514 18.316 5.57961 18.4205C5.68408 18.525 5.8081 18.6078 5.94459 18.6644C6.08108 18.7209 6.22737 18.75 6.37511 18.75V16.5ZM12.3751 18.75C12.5228 18.75 12.6691 18.7209 12.8056 18.6644C12.9421 18.6078 13.0661 18.525 13.1706 18.4205C13.2751 18.316 13.3579 18.192 13.4145 18.0555C13.471 17.919 13.5001 17.7727 13.5001 17.625C13.5001 17.4773 13.471 17.331 13.4145 17.1945C13.3579 17.058 13.2751 16.934 13.1706 16.8295C13.0661 16.725 12.9421 16.6422 12.8056 16.5856C12.6691 16.5291 12.5228 16.5 12.3751 16.5V18.75ZM3.79511 22.185C3.75369 22.3268 3.74061 22.4754 3.75663 22.6223C3.77264 22.7692 3.81742 22.9115 3.88843 23.041C3.95943 23.1706 4.05526 23.2849 4.17044 23.3775C4.28562 23.47 4.4179 23.539 4.55973 23.5804C4.70156 23.6218 4.85015 23.6349 4.99703 23.6189C5.14392 23.6028 5.2862 23.5581 5.41578 23.4871C5.54535 23.416 5.65967 23.3202 5.75221 23.205C5.84474 23.0899 5.91369 22.9576 5.95511 22.8157L3.79511 22.185ZM12.7951 22.8157C12.8365 22.9576 12.9055 23.0899 12.998 23.205C13.0905 23.3202 13.2049 23.416 13.3344 23.4871C13.464 23.5581 13.6063 23.6028 13.7532 23.6189C13.9001 23.6349 14.0487 23.6218 14.1905 23.5804C14.3323 23.539 14.4646 23.47 14.5798 23.3775C14.695 23.2849 14.7908 23.1706 14.8618 23.041C14.9328 22.9115 14.9776 22.7692 14.9936 22.6223C15.0096 22.4754 14.9965 22.3268 14.9551 22.185L12.7951 22.8157ZM6.37511 18.75H12.3751V16.5H6.37511V18.75ZM8.13948 7.30125L3.79511 22.185L5.95511 22.8157L10.2995 7.93162L8.13948 7.30125ZM8.45073 7.932L12.7951 22.8157L14.9551 22.185L10.6107 7.30125L8.45073 7.932ZM9.37511 8.625C9.16684 8.62488 8.96421 8.55729 8.79757 8.43236C8.63093 8.30743 8.50924 8.13188 8.45073 7.932L10.6107 7.30125C10.5329 7.03384 10.3703 6.79931 10.1475 6.63221C9.92466 6.46511 9.65362 6.37485 9.37511 6.375V8.625ZM10.2995 7.93162C10.241 8.13151 10.1193 8.30743 9.95264 8.43236C9.786 8.55729 9.58338 8.62488 9.37511 8.625V6.375C9.09664 6.37483 8.82564 6.46504 8.60282 6.63206C8.38001 6.79909 8.21742 7.03391 8.13948 7.30125L10.2995 7.93162ZM25.1251 16.5H26.2501C26.2501 16.2016 26.1316 15.9155 25.9206 15.7045C25.7096 15.4935 25.4235 15.375 25.1251 15.375V16.5ZM24.0001 22.5C24.0001 22.7984 24.1186 23.0845 24.3296 23.2955C24.5406 23.5065 24.8267 23.625 25.1251 23.625C25.4235 23.625 25.7096 23.5065 25.9206 23.2955C26.1316 23.0845 26.2501 22.7984 26.2501 22.5H24.0001ZM26.2501 18.375C26.2501 18.0766 26.1316 17.7905 25.9206 17.5795C25.7096 17.3685 25.4235 17.25 25.1251 17.25C24.8267 17.25 24.5406 17.3685 24.3296 17.5795C24.1186 17.7905 24.0001 18.0766 24.0001 18.375H26.2501ZM24.0001 16.5C24.0001 16.7984 24.1186 17.0845 24.3296 17.2955C24.5406 17.5065 24.8267 17.625 25.1251 17.625C25.4235 17.625 25.7096 17.5065 25.9206 17.2955C26.1316 17.0845 26.2501 16.7984 26.2501 16.5H24.0001ZM19.1251 10.875C18.8267 10.875 18.5406 10.9935 18.3296 11.2045C18.1186 11.4155 18.0001 11.7016 18.0001 12C18.0001 12.2984 18.1186 12.5845 18.3296 12.7955C18.5406 13.0065 18.8267 13.125 19.1251 13.125V10.875ZM17.2501 19.5C17.2501 19.0027 17.4476 18.5258 17.7993 18.1742C18.1509 17.8225 18.6278 17.625 19.1251 17.625V15.375C16.847 15.375 15.0001 17.2219 15.0001 19.5H17.2501ZM19.1251 21.375C18.6278 21.375 18.1509 21.1775 17.7993 20.8258C17.4476 20.4742 17.2501 19.9973 17.2501 19.5H15.0001C15.0001 21.7781 16.847 23.625 19.1251 23.625V21.375ZM21.0001 21.375H19.1251V23.625H21.0001V21.375ZM24.0001 18.375C24.0001 19.1706 23.684 19.9337 23.1214 20.4963C22.5588 21.0589 21.7958 21.375 21.0001 21.375V23.625C23.8996 23.625 26.2501 21.2745 26.2501 18.375H24.0001ZM24.0001 16.5V18.375H26.2501V16.5H24.0001ZM19.1251 17.625H25.1251V15.375H19.1251V17.625ZM26.2501 22.5V18.375H24.0001V22.5H26.2501ZM26.2501 16.5V16.125H24.0001V16.5H26.2501ZM21.0001 10.875H19.1754V13.125H21.0001V10.875ZM19.1754 10.875H19.1251V13.125H19.1754V10.875ZM26.2501 16.125C26.2501 13.2255 23.8996 10.875 21.0001 10.875V13.125C21.7958 13.125 22.5588 13.4411 23.1214 14.0037C23.684 14.5663 24.0001 15.3293 24.0001 16.125H26.2501Z" fill="#0C1822"/>
</svg>
