<svg width="30" height="30" viewBox="0 0 30 30" fill="none" xmlns="http://www.w3.org/2000/svg">
<path fill-rule="evenodd" clip-rule="evenodd" d="M15.0007 0C15.9308 0.0255013 16.9028 0.814541 17.5404 1.42057C18.4328 2.25713 19.0575 3.33914 19.336 4.53023C20.3759 3.8846 21.5838 3.56149 22.8071 3.60168C23.6862 3.62418 24.9312 3.75469 25.6063 4.39372C26.2453 5.06875 26.3743 6.31382 26.3968 7.19286C26.4375 8.41609 26.1149 9.62395 25.4698 10.664C26.8603 10.985 27.8849 11.7291 28.5794 12.4611C29.1855 13.0987 29.9745 14.0707 30 15.0007C29.9745 15.9308 29.1855 16.9028 28.5794 17.5404C27.7431 18.4333 26.661 19.0586 25.4698 19.3375C26.1146 20.3777 26.4376 21.5854 26.3983 22.8086C26.3758 23.6877 26.2453 24.9327 25.6063 25.6078C24.9312 26.2468 23.6862 26.3758 22.8071 26.3983C21.5839 26.439 20.3761 26.1164 19.336 25.4713C19.0571 26.6625 18.4318 27.7446 17.5389 28.5809C16.9013 29.187 15.9278 29.976 14.9992 30.0015C14.0692 29.976 13.0972 29.187 12.4596 28.5809C11.5678 27.7442 10.9435 26.6622 10.6655 25.4713C9.62561 26.1169 8.41774 26.44 7.19436 26.3998C6.31532 26.3773 5.07025 26.2468 4.39522 25.6078C3.75619 24.9327 3.62718 23.6877 3.60468 22.8086C3.56404 21.5854 3.88662 20.3776 4.53173 19.3375C3.34047 19.0586 2.25844 18.4333 1.42207 17.5404C0.814541 16.9028 0.0255013 15.9308 0 15.0007C0.0255013 14.0707 0.814541 13.0987 1.42057 12.4611C2.25713 11.5687 3.33914 10.944 4.53023 10.6655C3.8846 9.62561 3.56149 8.41774 3.60168 7.19436C3.62418 6.31532 3.75469 5.07025 4.39372 4.39522C5.06875 3.75619 6.31382 3.62568 7.19286 3.60468C8.41609 3.56404 9.62395 3.88662 10.664 4.53173C10.985 3.14116 11.7291 2.11661 12.4611 1.42207C13.1002 0.816041 14.0707 0.0255013 15.0007 0ZM15.7508 20.956C15.2588 21.0161 14.7427 21.0161 14.2507 20.956C13.8337 21.9161 13.5007 22.8866 13.5007 24.0027C13.5007 25.5058 14.3692 26.3533 15.0007 26.7928C15.6323 26.3533 16.5008 25.5058 16.5008 24.0027C16.5008 22.8866 16.1678 21.9161 15.7508 20.956ZM10.2605 18.6819C9.28696 19.066 8.36442 19.5175 7.57538 20.3065C6.51333 21.3686 6.52683 22.5821 6.66483 23.3382C7.42087 23.4747 8.63443 23.4897 9.69648 22.4276C10.4855 21.6386 10.937 20.716 11.3211 19.7425C10.9246 19.4347 10.5683 19.0784 10.2605 18.6819ZM19.741 18.6819C19.4332 19.0784 19.0769 19.4347 18.6804 19.7425C19.0645 20.716 19.516 21.6386 20.305 22.4276C21.3671 23.4897 22.5806 23.4747 23.3367 23.3382C23.4732 22.5821 23.4882 21.3686 22.4261 20.3065C21.6371 19.5175 20.7145 19.066 19.741 18.6819ZM15.0007 12.0006C14.2051 12.0006 13.442 12.3167 12.8793 12.8793C12.3167 13.442 12.0006 14.2051 12.0006 15.0007C12.0006 15.7964 12.3167 16.5595 12.8793 17.1222C13.442 17.6848 14.2051 18.0009 15.0007 18.0009C15.7964 18.0009 16.5595 17.6848 17.1222 17.1222C17.6848 16.5595 18.0009 15.7964 18.0009 15.0007C18.0009 14.2051 17.6848 13.442 17.1222 12.8793C16.5595 12.3167 15.7964 12.0006 15.0007 12.0006ZM6.0003 13.5007C4.49722 13.5007 3.64968 14.3692 3.21016 15.0007C3.64968 15.6323 4.49722 16.5008 6.0003 16.5008C7.11636 16.5008 8.0869 16.1678 9.04695 15.7508C8.9842 15.2527 8.9842 14.7488 9.04695 14.2507C8.0869 13.8337 7.11636 13.5007 6.0003 13.5007ZM24.0012 13.5007C22.8851 13.5007 21.9146 13.8337 20.9545 14.2507C21.0146 14.7427 21.0146 15.2588 20.9545 15.7508C21.9146 16.1678 22.8851 16.5008 24.0012 16.5008C25.5043 16.5008 26.3518 15.6323 26.7913 15.0007C26.3518 14.3692 25.5043 13.5007 24.0012 13.5007ZM9.69648 7.57538C8.63443 6.51333 7.42087 6.52683 6.66483 6.66483C6.52683 7.42087 6.51333 8.63443 7.57538 9.69648C8.36442 10.4855 9.28696 10.937 10.2605 11.3211C10.5683 10.9246 10.9246 10.5683 11.3211 10.2605C10.937 9.28696 10.4855 8.36442 9.69648 7.57538ZM23.3367 6.66483C22.5806 6.52683 21.3671 6.51333 20.305 7.57538C19.516 8.36442 19.0645 9.28696 18.6804 10.2605C19.0785 10.5705 19.432 10.924 19.741 11.3211C20.7145 10.937 21.6371 10.4855 22.4261 9.69648C23.4882 8.63443 23.4732 7.42087 23.3367 6.66483ZM15.0007 3.21016C14.3692 3.64818 13.5007 4.49572 13.5007 5.9988C13.5007 7.11486 13.8337 8.0854 14.2507 9.04545C14.7427 8.98545 15.2588 8.98545 15.7508 9.04545C16.1678 8.0854 16.5008 7.11486 16.5008 5.9988C16.5008 4.49572 15.6323 3.64968 15.0007 3.21016Z" fill="#F79432"/>
</svg>
