<svg width="20" height="22" viewBox="0 0 20 22" fill="none" xmlns="http://www.w3.org/2000/svg">
<path fill-rule="evenodd" clip-rule="evenodd" d="M10 0C10.62 0.017 11.268 0.543 11.693 0.947C12.2879 1.50468 12.7044 2.22599 12.89 3.02C13.5832 2.5896 14.3885 2.37421 15.204 2.401C15.79 2.416 16.62 2.503 17.07 2.929C17.496 3.379 17.582 4.209 17.597 4.795C17.6241 5.61044 17.409 6.41564 16.979 7.109C17.906 7.323 18.589 7.819 19.052 8.307C19.456 8.732 19.982 9.38 19.999 10C19.982 10.62 19.456 11.268 19.052 11.693C18.4944 12.2883 17.7731 12.7051 16.979 12.891C17.4088 13.5845 17.6242 14.3895 17.598 15.205C17.583 15.791 17.496 16.621 17.07 17.071C16.62 17.497 15.79 17.583 15.204 17.598C14.3886 17.6251 13.5834 17.41 12.89 16.98C12.7041 17.7741 12.2873 18.4954 11.692 19.053C11.267 19.457 10.618 19.983 9.999 20C9.379 19.983 8.731 19.457 8.306 19.053C7.71147 18.4952 7.29533 17.7739 7.11 16.98C6.41675 17.4104 5.61155 17.6258 4.796 17.599C4.21 17.584 3.38 17.497 2.93 17.071C2.504 16.621 2.418 15.791 2.403 15.205C2.37591 14.3896 2.59095 13.5844 3.021 12.891C2.22687 12.7051 1.50555 12.2883 0.948 11.693C0.543 11.268 0.017 10.62 0 10C0.017 9.38 0.543 8.732 0.947 8.307C1.50468 7.7121 2.22599 7.29561 3.02 7.11C2.5896 6.41675 2.37421 5.61155 2.401 4.796C2.416 4.21 2.503 3.38 2.929 2.93C3.379 2.504 4.209 2.417 4.795 2.403C5.61044 2.37591 6.41564 2.59095 7.109 3.021C7.323 2.094 7.819 1.411 8.307 0.948C8.733 0.544 9.38 0.017 10 0ZM10.5 13.97C10.172 14.01 9.828 14.01 9.5 13.97C9.222 14.61 9 15.257 9 16.001C9 17.003 9.579 17.568 10 17.861C10.421 17.568 11 17.003 11 16.001C11 15.257 10.778 14.61 10.5 13.97ZM6.84 12.454C6.191 12.71 5.576 13.011 5.05 13.537C4.342 14.245 4.351 15.054 4.443 15.558C4.947 15.649 5.756 15.659 6.464 14.951C6.99 14.425 7.291 13.81 7.547 13.161C7.28269 12.9558 7.04517 12.7183 6.84 12.454ZM13.16 12.454C12.9548 12.7183 12.7173 12.9558 12.453 13.161C12.709 13.81 13.01 14.425 13.536 14.951C14.244 15.659 15.053 15.649 15.557 15.558C15.648 15.054 15.658 14.245 14.95 13.537C14.424 13.011 13.809 12.71 13.16 12.454ZM10 8C9.46957 8 8.96086 8.21071 8.58579 8.58579C8.21071 8.96086 8 9.46957 8 10C8 10.5304 8.21071 11.0391 8.58579 11.4142C8.96086 11.7893 9.46957 12 10 12C10.5304 12 11.0391 11.7893 11.4142 11.4142C11.7893 11.0391 12 10.5304 12 10C12 9.46957 11.7893 8.96086 11.4142 8.58579C11.0391 8.21071 10.5304 8 10 8ZM4 9C2.998 9 2.433 9.579 2.14 10C2.433 10.421 2.998 11 4 11C4.744 11 5.391 10.778 6.031 10.5C5.98917 10.168 5.98917 9.83202 6.031 9.5C5.391 9.222 4.744 9 4 9ZM16 9C15.256 9 14.609 9.222 13.969 9.5C14.009 9.828 14.009 10.172 13.969 10.5C14.609 10.778 15.256 11 16 11C17.002 11 17.567 10.421 17.86 10C17.567 9.579 17.002 9 16 9ZM6.464 5.05C5.756 4.342 4.947 4.351 4.443 4.443C4.351 4.947 4.342 5.756 5.05 6.464C5.576 6.99 6.191 7.291 6.84 7.547C7.04517 7.28269 7.28269 7.04517 7.547 6.84C7.291 6.191 6.99 5.576 6.464 5.05ZM15.557 4.443C15.053 4.351 14.244 4.342 13.536 5.05C13.01 5.576 12.709 6.191 12.453 6.84C12.7183 7.04667 12.954 7.28233 13.16 7.547C13.809 7.291 14.424 6.99 14.95 6.464C15.658 5.756 15.648 4.947 15.557 4.443ZM10 2.14C9.579 2.432 9 2.997 9 3.999C9 4.743 9.222 5.39 9.5 6.03C9.828 5.99 10.172 5.99 10.5 6.03C10.778 5.39 11 4.743 11 3.999C11 2.997 10.421 2.433 10 2.14Z" fill="#F79432"/>
</svg>
