<svg width="30" height="30" viewBox="0 0 30 30" fill="none" xmlns="http://www.w3.org/2000/svg">
<circle cx="15" cy="15" r="14.5" fill="white" stroke="#F0F0F0"/>
<path d="M17.8291 20.9907C17.8833 21.0456 17.9262 21.1108 17.9556 21.1825C17.9849 21.2543 18 21.3312 18 21.4088C18 21.4864 17.9849 21.5633 17.9556 21.635C17.9262 21.7068 17.8833 21.7719 17.8291 21.8268C17.7749 21.8817 17.7105 21.9253 17.6397 21.955C17.5689 21.9847 17.493 22 17.4164 22C17.3398 22 17.2639 21.9847 17.1931 21.955C17.1223 21.9253 17.0579 21.8817 17.0037 21.8268L11.1711 15.918C11.1168 15.8632 11.0738 15.798 11.0445 15.7263C11.0151 15.6545 11 15.5777 11 15.5C11 15.4223 11.0151 15.3455 11.0445 15.2737C11.0738 15.202 11.1168 15.1368 11.1711 15.082L17.0037 9.17316C17.1132 9.06229 17.2616 9 17.4164 9C17.5712 9 17.7196 9.06229 17.8291 9.17316C17.9385 9.28403 18 9.43441 18 9.59121C18 9.74801 17.9385 9.89838 17.8291 10.0093L12.4083 15.5L17.8291 20.9907Z" fill="#102E44"/>
</svg>
