<svg width="49" height="8" viewBox="0 0 49 8" fill="none" xmlns="http://www.w3.org/2000/svg">
<path d="M3.32894 1.99259C3.58047 1.36555 3.70623 1.05202 3.91055 1.00857C3.96427 0.997144 4.0198 0.997144 4.07353 1.00857C4.27785 1.05202 4.40361 1.36555 4.65513 1.99259C4.79817 2.34918 4.86969 2.52748 5.00351 2.64874C5.04104 2.68276 5.08179 2.71305 5.12517 2.7392C5.27985 2.83242 5.47293 2.84972 5.8591 2.8843C6.51281 2.94285 6.83967 2.97212 6.93948 3.15849C6.96016 3.19708 6.97421 3.23887 6.98106 3.28212C7.01415 3.49093 6.77387 3.70954 6.29329 4.14676L6.15984 4.26818C5.93516 4.47259 5.82282 4.57479 5.75784 4.70234C5.71886 4.77886 5.69273 4.86126 5.68048 4.94625C5.66007 5.08793 5.69296 5.2362 5.75876 5.53274L5.78226 5.63869C5.90025 6.17049 5.95925 6.43638 5.8856 6.56708C5.81945 6.68448 5.6976 6.75964 5.563 6.76607C5.41316 6.77322 5.20202 6.60117 4.77973 6.25708C4.50152 6.03037 4.36241 5.91702 4.20799 5.87274C4.06686 5.83227 3.91721 5.83227 3.77609 5.87274C3.62166 5.91702 3.48256 6.03037 3.20434 6.25708C2.78206 6.60117 2.57092 6.77322 2.42107 6.76607C2.28647 6.75964 2.16462 6.68448 2.09847 6.56708C2.02483 6.43638 2.08382 6.17049 2.20181 5.63869L2.22532 5.53274C2.29111 5.2362 2.32401 5.08793 2.30359 4.94625C2.29135 4.86126 2.26521 4.77886 2.22624 4.70234C2.16126 4.57479 2.04892 4.47259 1.82424 4.26818L1.69079 4.14676C1.21021 3.70954 0.96992 3.49093 1.00301 3.28212C1.00987 3.23887 1.02392 3.19708 1.04459 3.15849C1.14441 2.97212 1.47126 2.94285 2.12498 2.8843C2.51115 2.84972 2.70423 2.83242 2.8589 2.7392C2.90229 2.71305 2.94303 2.68276 2.98057 2.64874C3.11439 2.52748 3.18591 2.34918 3.32894 1.99259Z" fill="#FAB84C" stroke="#FAB84C" stroke-width="2"/>
<path d="M23.6991 1.99259C23.9506 1.36555 24.0763 1.05202 24.2807 1.00857C24.3344 0.997144 24.3899 0.997144 24.4436 1.00857C24.648 1.05202 24.7737 1.36555 25.0252 1.99259C25.1683 2.34918 25.2398 2.52748 25.3736 2.64874C25.4112 2.68276 25.4519 2.71305 25.4953 2.7392C25.65 2.83242 25.843 2.84972 26.2292 2.8843C26.8829 2.94285 27.2098 2.97212 27.3096 3.15849C27.3303 3.19708 27.3443 3.23887 27.3512 3.28212C27.3843 3.49093 27.144 3.70954 26.6634 4.14676L26.53 4.26818C26.3053 4.47259 26.1929 4.57479 26.128 4.70234C26.089 4.77886 26.0628 4.86126 26.0506 4.94625C26.0302 5.08793 26.0631 5.2362 26.1289 5.53274L26.1524 5.63869C26.2704 6.17049 26.3294 6.43638 26.2557 6.56708C26.1896 6.68448 26.0677 6.75964 25.9331 6.76607C25.7833 6.77322 25.5721 6.60117 25.1499 6.25708C24.8716 6.03037 24.7325 5.91702 24.5781 5.87274C24.437 5.83227 24.2873 5.83227 24.1462 5.87274C23.9918 5.91702 23.8527 6.03037 23.5745 6.25708C23.1522 6.60117 22.941 6.77322 22.7912 6.76607C22.6566 6.75964 22.5347 6.68448 22.4686 6.56708C22.3949 6.43638 22.4539 6.17049 22.5719 5.63869L22.5954 5.53274C22.6612 5.2362 22.6941 5.08793 22.6737 4.94625C22.6615 4.86126 22.6353 4.77886 22.5964 4.70234C22.5314 4.57479 22.419 4.47259 22.1944 4.26818L22.0609 4.14676C21.5803 3.70954 21.34 3.49093 21.3731 3.28212C21.38 3.23887 21.394 3.19708 21.4147 3.15849C21.5145 2.97212 21.8414 2.94285 22.4951 2.8843C22.8813 2.84972 23.0743 2.83242 23.229 2.7392C23.2724 2.71305 23.3131 2.68276 23.3507 2.64874C23.4845 2.52748 23.556 2.34918 23.6991 1.99259Z" fill="#FAB84C" stroke="#FAB84C" stroke-width="2"/>
<path d="M13.5145 1.99259C13.766 1.36555 13.8918 1.05202 14.0961 1.00857C14.1498 0.997144 14.2053 0.997144 14.2591 1.00857C14.4634 1.05202 14.5892 1.36555 14.8407 1.99259C14.9837 2.34918 15.0552 2.52748 15.1891 2.64874C15.2266 2.68276 15.2673 2.71305 15.3107 2.7392C15.4654 2.83242 15.6585 2.84972 16.0446 2.8843C16.6984 2.94285 17.0252 2.97212 17.125 3.15849C17.1457 3.19708 17.1598 3.23887 17.1666 3.28212C17.1997 3.49093 16.9594 3.70954 16.4788 4.14676L16.3454 4.26818C16.1207 4.47259 16.0084 4.57479 15.9434 4.70234C15.9044 4.77886 15.8783 4.86126 15.866 4.94625C15.8456 5.08793 15.8785 5.2362 15.9443 5.53274L15.9678 5.63869C16.0858 6.17049 16.1448 6.43638 16.0711 6.56708C16.005 6.68448 15.8832 6.75964 15.7486 6.76607C15.5987 6.77322 15.3876 6.60117 14.9653 6.25708C14.6871 6.03037 14.548 5.91702 14.3935 5.87274C14.2524 5.83227 14.1028 5.83227 13.9616 5.87274C13.8072 5.91702 13.6681 6.03037 13.3899 6.25708C12.9676 6.60117 12.7565 6.77322 12.6066 6.76607C12.472 6.75964 12.3502 6.68448 12.284 6.56708C12.2104 6.43638 12.2694 6.17049 12.3874 5.63869L12.4109 5.53274C12.4767 5.2362 12.5096 5.08793 12.4891 4.94625C12.4769 4.86126 12.4508 4.77886 12.4118 4.70234C12.3468 4.57479 12.2345 4.47259 12.0098 4.26818L11.8763 4.14676C11.3958 3.70954 11.1555 3.49093 11.1886 3.28212C11.1954 3.23887 11.2095 3.19708 11.2301 3.15849C11.33 2.97212 11.6568 2.94285 12.3105 2.8843C12.6967 2.84972 12.8898 2.83242 13.0444 2.7392C13.0878 2.71305 13.1286 2.68276 13.1661 2.64874C13.2999 2.52748 13.3715 2.34918 13.5145 1.99259Z" fill="#FAB84C" stroke="#FAB84C" stroke-width="2"/>
<path d="M33.8846 1.99259C34.1361 1.36555 34.2619 1.05202 34.4662 1.00857C34.5199 0.997144 34.5755 0.997144 34.6292 1.00857C34.8335 1.05202 34.9593 1.36555 35.2108 1.99259C35.3538 2.34918 35.4254 2.52748 35.5592 2.64874C35.5967 2.68276 35.6375 2.71305 35.6808 2.7392C35.8355 2.83242 36.0286 2.84972 36.4148 2.8843C37.0685 2.94285 37.3953 2.97212 37.4951 3.15849C37.5158 3.19708 37.5299 3.23887 37.5367 3.28212C37.5698 3.49093 37.3295 3.70954 36.849 4.14676L36.7155 4.26818C36.4908 4.47259 36.3785 4.57479 36.3135 4.70234C36.2745 4.77886 36.2484 4.86126 36.2361 4.94625C36.2157 5.08793 36.2486 5.2362 36.3144 5.53274L36.3379 5.63869C36.4559 6.17049 36.5149 6.43638 36.4413 6.56708C36.3751 6.68448 36.2533 6.75964 36.1187 6.76607C35.9688 6.77322 35.7577 6.60117 35.3354 6.25708C35.0572 6.03037 34.9181 5.91702 34.7637 5.87274C34.6225 5.83227 34.4729 5.83227 34.3318 5.87274C34.1773 5.91702 34.0382 6.03037 33.76 6.25708C33.3377 6.60117 33.1266 6.77322 32.9767 6.76607C32.8421 6.75964 32.7203 6.68448 32.6541 6.56708C32.5805 6.43638 32.6395 6.17049 32.7575 5.63869L32.781 5.53274C32.8468 5.2362 32.8797 5.08793 32.8593 4.94625C32.847 4.86126 32.8209 4.77886 32.7819 4.70234C32.7169 4.57479 32.6046 4.47259 32.3799 4.26818L32.2465 4.14676C31.7659 3.70954 31.5256 3.49093 31.5587 3.28212C31.5655 3.23887 31.5796 3.19708 31.6003 3.15849C31.7001 2.97212 32.0269 2.94285 32.6806 2.8843C33.0668 2.84972 33.2599 2.83242 33.4146 2.7392C33.4579 2.71305 33.4987 2.68276 33.5362 2.64874C33.6701 2.52748 33.7416 2.34918 33.8846 1.99259Z" fill="#FAB84C" stroke="#FAB84C" stroke-width="2"/>
<path d="M44.0692 1.99259C44.3207 1.36555 44.4465 1.05202 44.6508 1.00857C44.7045 0.997144 44.76 0.997144 44.8138 1.00857C45.0181 1.05202 45.1438 1.36555 45.3954 1.99259C45.5384 2.34918 45.6099 2.52748 45.7437 2.64874C45.7813 2.68276 45.822 2.71305 45.8654 2.7392C46.0201 2.83242 46.2132 2.84972 46.5993 2.8843C47.253 2.94285 47.5799 2.97212 47.6797 3.15849C47.7004 3.19708 47.7144 3.23887 47.7213 3.28212C47.7544 3.49093 47.5141 3.70954 47.0335 4.14676L46.9001 4.26818C46.6754 4.47259 46.5631 4.57479 46.4981 4.70234C46.4591 4.77886 46.433 4.86126 46.4207 4.94625C46.4003 5.08793 46.4332 5.2362 46.499 5.53274L46.5225 5.63869C46.6405 6.17049 46.6995 6.43638 46.6258 6.56708C46.5597 6.68448 46.4378 6.75964 46.3032 6.76607C46.1534 6.77322 45.9423 6.60117 45.52 6.25708C45.2418 6.03037 45.1026 5.91702 44.9482 5.87274C44.8071 5.83227 44.6574 5.83227 44.5163 5.87274C44.3619 5.91702 44.2228 6.03037 43.9446 6.25708C43.5223 6.60117 43.3112 6.77322 43.1613 6.76607C43.0267 6.75964 42.9049 6.68448 42.8387 6.56708C42.7651 6.43638 42.8241 6.17049 42.942 5.63869L42.9656 5.53274C43.0313 5.2362 43.0642 5.08793 43.0438 4.94625C43.0316 4.86126 43.0054 4.77886 42.9665 4.70234C42.9015 4.57479 42.7892 4.47259 42.5645 4.26818L42.431 4.14676C41.9504 3.70954 41.7102 3.49093 41.7432 3.28212C41.7501 3.23887 41.7642 3.19708 41.7848 3.15849C41.8846 2.97212 42.2115 2.94285 42.8652 2.8843C43.2514 2.84972 43.4445 2.83242 43.5991 2.7392C43.6425 2.71305 43.6833 2.68276 43.7208 2.64874C43.8546 2.52748 43.9261 2.34918 44.0692 1.99259Z" fill="#FAB84C" stroke="#FAB84C" stroke-width="2"/>
</svg>
