<svg width="50" height="48" viewBox="0 0 50 48" fill="none" xmlns="http://www.w3.org/2000/svg">
<path d="M0.75 19.9505C0.75 18.1024 0.781201 16.2952 0.846002 14.5503C1.04521 8.85501 1.14601 6.00614 3.46206 3.67089C5.77811 1.33804 8.70857 1.21324 14.5647 0.961234C17.9581 0.818769 21.3541 0.748352 24.7505 0.750029C28.3026 0.750029 31.7227 0.822031 34.9363 0.961234C40.7925 1.21324 43.7205 1.33804 46.039 3.67329C48.355 6.00614 48.4558 8.85501 48.655 14.5503C48.7817 18.1493 48.7817 21.7516 48.655 25.3506C48.4558 31.0459 48.355 33.8948 46.039 36.23C43.7229 38.5629 40.7925 38.6877 34.9363 38.9397C33.1731 39.0149 31.3531 39.0709 29.4762 39.1077C27.7002 39.1413 26.8098 39.1557 26.0274 39.4557C25.2449 39.7557 24.5873 40.3149 23.2721 41.4429L18.0424 45.931C17.7879 46.1491 17.4761 46.2896 17.1441 46.3359C16.8121 46.3821 16.4739 46.3322 16.1694 46.192C15.865 46.0517 15.6071 45.8271 15.4265 45.5448C15.2459 45.2624 15.15 44.9342 15.1503 44.599V38.9637L14.5647 38.9397C8.70857 38.6877 5.78051 38.5629 3.46206 36.2276C1.14601 33.8948 1.04521 31.0459 0.846002 25.3506C0.782355 23.5512 0.750349 21.7509 0.75 19.9505Z" fill="#FAB84C" stroke="#F4EAD8" stroke-width="1.5" stroke-linecap="round" stroke-linejoin="round"/>
<path d="M25.0524 19.951H24.75M15.4474 19.951H15.1498M34.6502 19.951H34.3502M25.35 19.951C25.35 20.1101 25.2868 20.2627 25.1743 20.3752C25.0618 20.4878 24.9092 20.551 24.75 20.551C24.5909 20.551 24.4383 20.4878 24.3258 20.3752C24.2132 20.2627 24.15 20.1101 24.15 19.951C24.15 19.7918 24.2132 19.6392 24.3258 19.5267C24.4383 19.4142 24.5909 19.351 24.75 19.351C24.9092 19.351 25.0618 19.4142 25.1743 19.5267C25.2868 19.6392 25.35 19.7918 25.35 19.951ZM15.7498 19.951C15.7498 20.1101 15.6866 20.2627 15.5741 20.3752C15.4616 20.4878 15.309 20.551 15.1498 20.551C14.9907 20.551 14.8381 20.4878 14.7255 20.3752C14.613 20.2627 14.5498 20.1101 14.5498 19.951C14.5498 19.7918 14.613 19.6392 14.7255 19.5267C14.8381 19.4142 14.9907 19.351 15.1498 19.351C15.309 19.351 15.4616 19.4142 15.5741 19.5267C15.6866 19.6392 15.7498 19.7918 15.7498 19.951ZM34.9503 19.951C34.9503 20.1101 34.887 20.2627 34.7745 20.3752C34.662 20.4878 34.5094 20.551 34.3502 20.551C34.1911 20.551 34.0385 20.4878 33.926 20.3752C33.8134 20.2627 33.7502 20.1101 33.7502 19.951C33.7502 19.7918 33.8134 19.6392 33.926 19.5267C34.0385 19.4142 34.1911 19.351 34.3502 19.351C34.5094 19.351 34.662 19.4142 34.7745 19.5267C34.887 19.6392 34.9503 19.7918 34.9503 19.951Z" stroke="white" stroke-width="4" stroke-linecap="round" stroke-linejoin="round"/>
</svg>
