<svg width="30" height="30" viewBox="0 0 30 30" fill="none" xmlns="http://www.w3.org/2000/svg">
<circle cx="15" cy="15" r="14.5" fill="white" stroke="#F0F0F0"/>
<path d="M17.8289 15.918L11.9963 21.8268C11.9421 21.8817 11.8777 21.9253 11.8069 21.955C11.7361 21.9847 11.6602 22 11.5836 22C11.507 22 11.4311 21.9847 11.3603 21.955C11.2895 21.9253 11.2251 21.8817 11.1709 21.8268C11.1167 21.7719 11.0738 21.7068 11.0444 21.635C11.0151 21.5633 11 21.4864 11 21.4088C11 21.3312 11.0151 21.2543 11.0444 21.1825C11.0738 21.1108 11.1167 21.0456 11.1709 20.9907L16.5917 15.5L11.1709 10.0093C11.0615 9.89838 11 9.74801 11 9.59121C11 9.43441 11.0615 9.28403 11.1709 9.17316C11.2804 9.06229 11.4288 9 11.5836 9C11.7384 9 11.8868 9.06229 11.9963 9.17316L17.8289 15.082C17.8832 15.1368 17.9262 15.202 17.9555 15.2737C17.9849 15.3455 18 15.4223 18 15.5C18 15.5777 17.9849 15.6545 17.9555 15.7263C17.9262 15.798 17.8832 15.8632 17.8289 15.918Z" fill="#102E44"/>
</svg>
