<svg width="27" height="25" viewBox="0 0 27 25" fill="none" xmlns="http://www.w3.org/2000/svg">
<path fill-rule="evenodd" clip-rule="evenodd" d="M0.748923 12.7491H2.83242V23.2491C2.83242 23.448 2.91144 23.6387 3.05209 23.7794C3.19274 23.92 3.38351 23.9991 3.58242 23.9991H23.4139C23.6128 23.9991 23.8036 23.92 23.9443 23.7794C24.0849 23.6387 24.1639 23.448 24.1639 23.2491V12.7491H26.2489C26.4012 12.7488 26.5497 12.7023 26.6749 12.6156C26.8001 12.5289 26.8959 12.4062 26.9496 12.2637C27.0033 12.1213 27.0124 11.9658 26.9757 11.8181C26.9389 11.6703 26.8581 11.5373 26.7439 11.4366L13.9939 0.186551C13.8571 0.0663114 13.6811 0 13.4989 0C13.3167 0 13.1408 0.0663114 13.0039 0.186551L0.253923 11.4366C0.139736 11.5373 0.0589008 11.6703 0.0221627 11.8181C-0.0145755 11.9658 -0.00547686 12.1213 0.0482489 12.2637C0.101975 12.4062 0.197783 12.5289 0.32294 12.6156C0.448097 12.7023 0.596674 12.7488 0.748923 12.7491ZM3.58242 11.2491H2.73192L13.4989 1.74955L24.2659 11.2491H23.4154C23.2165 11.2491 23.0257 11.3281 22.8851 11.4687C22.7444 11.6094 22.6654 11.8001 22.6654 11.9991V22.4991H4.33392V11.9991C4.33392 11.8001 4.25491 11.6094 4.11425 11.4687C3.9736 11.3281 3.78284 11.2491 3.58392 11.2491" fill="#3D6A8A"/>
<path fill-rule="evenodd" clip-rule="evenodd" d="M15.061 15.25H11.311C10.9132 15.25 10.5317 15.408 10.2504 15.6893C9.96907 15.9706 9.81104 16.3522 9.81104 16.75V22.75C9.81104 23.1478 9.96907 23.5294 10.2504 23.8107C10.5317 24.092 10.9132 24.25 11.311 24.25H15.061C15.4589 24.25 15.8404 24.092 16.1217 23.8107C16.403 23.5294 16.561 23.1478 16.561 22.75V16.75C16.561 16.3522 16.403 15.9706 16.1217 15.6893C15.8404 15.408 15.4589 15.25 15.061 15.25ZM11.311 22.75V16.75H15.061V22.75H11.311Z" fill="#3D6A8A"/>
</svg>
