<svg width="24" height="24" viewBox="0 0 24 24" fill="none" xmlns="http://www.w3.org/2000/svg">
<path d="M2 10.5C2 9.73001 2.013 8.97701 2.04 8.25001C2.123 5.87701 2.165 4.69001 3.13 3.71701C4.095 2.74501 5.316 2.69301 7.756 2.58801C9.16988 2.52865 10.5849 2.49931 12 2.50001C13.48 2.50001 14.905 2.53001 16.244 2.58801C18.684 2.69301 19.904 2.74501 20.87 3.71801C21.835 4.69001 21.877 5.87701 21.96 8.25001C22.0127 9.74955 22.0127 11.2505 21.96 12.75C21.877 15.123 21.835 16.31 20.87 17.283C19.905 18.255 18.684 18.307 16.244 18.412C15.5093 18.4433 14.751 18.4667 13.969 18.482C13.229 18.496 12.858 18.502 12.532 18.627C12.206 18.752 11.932 18.985 11.384 19.455L9.205 21.325C9.09895 21.4159 8.96906 21.4744 8.83073 21.4937C8.69241 21.513 8.55146 21.4922 8.42461 21.4337C8.29776 21.3753 8.19033 21.2817 8.11507 21.1641C8.03981 21.0464 7.99987 20.9097 8 20.77V18.422L7.756 18.412C5.316 18.307 4.096 18.255 3.13 17.282C2.165 16.31 2.123 15.123 2.04 12.75C2.01348 12.0003 2.00015 11.2502 2 10.5Z" stroke="#FAB84C" stroke-width="1.5" stroke-linecap="round" stroke-linejoin="round"/>
<path d="M12.126 10.5H12M8.124 10.5H8M16.125 10.5H16M12.25 10.5C12.25 10.5663 12.2237 10.6299 12.1768 10.6768C12.1299 10.7237 12.0663 10.75 12 10.75C11.9337 10.75 11.8701 10.7237 11.8232 10.6768C11.7763 10.6299 11.75 10.5663 11.75 10.5C11.75 10.4337 11.7763 10.3701 11.8232 10.3232C11.8701 10.2763 11.9337 10.25 12 10.25C12.0663 10.25 12.1299 10.2763 12.1768 10.3232C12.2237 10.3701 12.25 10.4337 12.25 10.5ZM8.25 10.5C8.25 10.5663 8.22366 10.6299 8.17678 10.6768C8.12989 10.7237 8.0663 10.75 8 10.75C7.9337 10.75 7.87011 10.7237 7.82322 10.6768C7.77634 10.6299 7.75 10.5663 7.75 10.5C7.75 10.4337 7.77634 10.3701 7.82322 10.3232C7.87011 10.2763 7.9337 10.25 8 10.25C8.0663 10.25 8.12989 10.2763 8.17678 10.3232C8.22366 10.3701 8.25 10.4337 8.25 10.5ZM16.25 10.5C16.25 10.5663 16.2237 10.6299 16.1768 10.6768C16.1299 10.7237 16.0663 10.75 16 10.75C15.9337 10.75 15.8701 10.7237 15.8232 10.6768C15.7763 10.6299 15.75 10.5663 15.75 10.5C15.75 10.4337 15.7763 10.3701 15.8232 10.3232C15.8701 10.2763 15.9337 10.25 16 10.25C16.0663 10.25 16.1299 10.2763 16.1768 10.3232C16.2237 10.3701 16.25 10.4337 16.25 10.5Z" stroke="#FAB84C" stroke-width="1.5" stroke-linecap="round" stroke-linejoin="round"/>
</svg>
