<svg width="29" height="29" viewBox="0 0 29 29" fill="none" xmlns="http://www.w3.org/2000/svg">
<path d="M9.06283 10.2709H19.9378M9.06283 15.1042H15.7087M2.41699 12.6876C2.41699 11.7571 2.4327 10.8473 2.46533 9.96881C2.56562 7.10143 2.61637 5.66714 3.78241 4.49143C4.94845 3.31693 6.42383 3.2541 9.37216 3.12722C11.0806 3.0555 12.7904 3.02004 14.5003 3.02089C16.2887 3.02089 18.0105 3.05714 19.6285 3.12722C22.5768 3.2541 24.051 3.31693 25.2182 4.49264C26.3843 5.66714 26.435 7.10143 26.5353 9.96881C26.5991 11.7807 26.5991 13.5944 26.5353 15.4063C26.435 18.2737 26.3843 19.708 25.2182 20.8837C24.0522 22.0582 22.5768 22.121 19.6285 22.2479C18.7408 22.2858 17.8244 22.3139 16.8795 22.3325C15.9854 22.3494 15.5371 22.3566 15.1432 22.5077C14.7492 22.6587 14.4182 22.9403 13.756 23.5082L11.123 25.7678C10.9949 25.8776 10.8379 25.9483 10.6708 25.9716C10.5037 25.9949 10.3333 25.9697 10.1801 25.8991C10.0268 25.8285 9.89697 25.7155 9.80603 25.5733C9.71509 25.4312 9.66684 25.2659 9.66699 25.0971V22.26L9.37216 22.2479C6.42383 22.121 4.94966 22.0582 3.78241 20.8825C2.61637 19.708 2.56562 18.2737 2.46533 15.4063C2.43328 14.5004 2.41717 13.594 2.41699 12.6876Z" stroke="#0C1822" stroke-width="2.4" stroke-linecap="round" stroke-linejoin="round"/>
</svg>
