<svg width="28" height="28" viewBox="0 0 28 28" fill="none" xmlns="http://www.w3.org/2000/svg">
<path d="M21.713 10.1291L21.467 10.6951C21.4286 10.7872 21.3637 10.866 21.2806 10.9214C21.1975 10.9767 21.0999 11.0063 21 11.0063C20.9001 11.0063 20.8025 10.9767 20.7194 10.9214C20.6363 10.866 20.5714 10.7872 20.533 10.6951L20.287 10.1291C19.8545 9.1278 19.0624 8.325 18.067 7.87908L17.308 7.54008C17.2159 7.49772 17.1379 7.42985 17.0832 7.34451C17.0286 7.25917 16.9995 7.15994 16.9995 7.05858C16.9995 6.95722 17.0286 6.85799 17.0832 6.77265C17.1379 6.68731 17.2159 6.61944 17.308 6.57708L18.025 6.25808C19.0454 5.79946 19.8511 4.96696 20.276 3.93208L20.529 3.32108C20.5662 3.22644 20.631 3.14518 20.715 3.08791C20.799 3.03063 20.8983 3 21 3C21.1017 3 21.201 3.03063 21.285 3.08791C21.369 3.14518 21.4338 3.22644 21.471 3.32108L21.724 3.93108C22.1485 4.96616 22.9538 5.79901 23.974 6.25808L24.692 6.57808C24.7838 6.62056 24.8615 6.68842 24.916 6.77365C24.9705 6.85889 24.9994 6.95793 24.9994 7.05908C24.9994 7.16023 24.9705 7.25928 24.916 7.34451C24.8615 7.42974 24.7838 7.4976 24.692 7.54008L23.932 7.87808C22.9368 8.32445 22.1451 9.12761 21.713 10.1291ZM11 5.00108H15V7.00108H11C9.4087 7.00108 7.88258 7.63322 6.75736 8.75844C5.63214 9.88366 5 11.4098 5 13.0011C5 16.6111 7.462 18.9671 13 21.4811V19.0011H15C16.5913 19.0011 18.1174 18.3689 19.2426 17.2437C20.3679 16.1185 21 14.5924 21 13.0011H23C23 15.1228 22.1571 17.1576 20.6569 18.6579C19.1566 20.1582 17.1217 21.0011 15 21.0011V24.5011C10 22.5011 3 19.5011 3 13.0011C3 10.8793 3.84285 8.84452 5.34315 7.34423C6.84344 5.84394 8.87827 5.00108 11 5.00108Z" fill="#0C1822"/>
</svg>
