<svg width="18" height="18" viewBox="0 0 18 18" fill="none" xmlns="http://www.w3.org/2000/svg">
<path d="M7.94255 13.3299C8.01862 13.4059 8.07897 13.4961 8.12014 13.5954C8.16131 13.6948 8.1825 13.8012 8.1825 13.9087C8.1825 14.0163 8.16131 14.1227 8.12014 14.222C8.07897 14.3214 8.01862 14.4116 7.94255 14.4876L4.66999 17.7601C4.59401 17.8361 4.50378 17.8965 4.40446 17.9376C4.30514 17.9788 4.19867 18 4.09116 18C3.98364 18 3.87718 17.9788 3.77786 17.9376C3.67854 17.8965 3.58831 17.8361 3.51232 17.7601L0.239761 14.4876C0.163747 14.4116 0.10345 14.3213 0.0623119 14.222C0.0211736 14.1227 0 14.0162 0 13.9087C0 13.8012 0.0211736 13.6948 0.0623119 13.5955C0.10345 13.4962 0.163747 13.4059 0.239761 13.3299C0.393277 13.1764 0.60149 13.0902 0.818595 13.0902C0.926095 13.0902 1.03254 13.1113 1.13186 13.1525C1.23117 13.1936 1.32142 13.2539 1.39743 13.3299L3.27302 15.2065V0.818767C3.27302 0.601787 3.35921 0.393695 3.51264 0.240267C3.66608 0.0868387 3.87417 0.000643684 4.09116 0.000643684C4.30814 0.000643684 4.51624 0.0868387 4.66967 0.240267C4.8231 0.393695 4.9093 0.601787 4.9093 0.818767V15.2065L6.78488 13.3299C6.86087 13.2539 6.9511 13.1935 7.05042 13.1523C7.14974 13.1112 7.2562 13.09 7.36372 13.09C7.47123 13.09 7.5777 13.1112 7.67702 13.1523C7.77634 13.1935 7.86657 13.2539 7.94255 13.3299ZM17.7602 3.51244L14.4877 0.239945C14.4117 0.163879 14.3215 0.103535 14.2221 0.0623632C14.1228 0.0211918 14.0164 0 13.9088 0C13.8013 0 13.6949 0.0211918 13.5955 0.0623632C13.4962 0.103535 13.406 0.163879 13.33 0.239945L10.0574 3.51244C9.90393 3.66595 9.81768 3.87416 9.81768 4.09126C9.81768 4.30836 9.90393 4.51657 10.0574 4.67008C10.211 4.8236 10.4192 4.90984 10.6363 4.90984C10.8534 4.90984 11.0616 4.8236 11.2151 4.67008L13.0907 2.79351V17.1812C13.0907 17.3982 13.1769 17.6063 13.3303 17.7597C13.4838 17.9132 13.6919 17.9994 13.9088 17.9994C14.1258 17.9994 14.3339 17.9132 14.4874 17.7597C14.6408 17.6063 14.727 17.3982 14.727 17.1812V2.79351L16.6026 4.67008C16.7561 4.8236 16.9643 4.90984 17.1814 4.90984C17.3985 4.90984 17.6067 4.8236 17.7602 4.67008C17.9138 4.51657 18 4.30836 18 4.09126C18 3.87416 17.9138 3.66595 17.7602 3.51244Z" fill="black"/>
</svg>
