<svg width="33" height="33" viewBox="0 0 33 33" fill="none" xmlns="http://www.w3.org/2000/svg">
<path d="M32.3071 16.0667L29.942 13.7018C29.5409 13.3011 29.0092 13.0579 28.4438 13.0164C27.8783 12.9749 27.3168 13.1378 26.8615 13.4756L19.5238 6.13825C19.8618 5.68311 20.025 5.12171 19.9838 4.55632C19.9425 3.99092 19.6995 3.45915 19.2991 3.05786L16.934 0.692878C16.7144 0.473212 16.4536 0.298961 16.1667 0.180075C15.8797 0.0611901 15.5721 0 15.2615 0C14.9508 0 14.6432 0.0611901 14.3562 0.180075C14.0693 0.298961 13.8085 0.473212 13.5889 0.692878L4.12853 10.1528C3.90886 10.3724 3.7346 10.6332 3.61571 10.9201C3.49682 11.2071 3.43562 11.5147 3.43562 11.8253C3.43562 12.1359 3.49682 12.4435 3.61571 12.7305C3.7346 13.0174 3.90886 13.2782 4.12853 13.4978L6.49362 15.8628C6.89484 16.2628 7.42635 16.5055 7.99143 16.5468C8.55651 16.588 9.11763 16.425 9.57267 16.0874L10.6325 17.1472L0.968181 26.8112C0.326119 27.5133 -0.0203467 28.4361 0.000924555 29.3873C0.0221958 30.3385 0.409564 31.2449 1.08237 31.9177C1.75518 32.5905 2.66158 32.9778 3.61284 32.9991C4.5641 33.0203 5.4869 32.6739 6.18912 32.0319L15.852 22.368L16.9118 23.4263C16.5739 23.8814 16.4106 24.4428 16.4519 25.0082C16.4931 25.5736 16.7361 26.1054 17.1365 26.5067L19.5016 28.8717C19.7212 29.0913 19.982 29.2656 20.269 29.3845C20.556 29.5033 20.8635 29.5645 21.1742 29.5645C21.4848 29.5645 21.7924 29.5033 22.0794 29.3845C22.3664 29.2656 22.6271 29.0913 22.8467 28.8717L32.3071 19.4117C32.5268 19.1921 32.701 18.9314 32.8199 18.6444C32.9388 18.3574 33 18.0499 33 17.7392C33 17.4286 32.9388 17.121 32.8199 16.8341C32.701 16.5471 32.5268 16.2864 32.3071 16.0667ZM8.16544 14.191L5.80035 11.826L15.2607 2.3661L17.6258 4.73109L8.16544 14.191ZM4.51729 30.3586C4.26803 30.6064 3.93085 30.7455 3.57939 30.7455C3.22792 30.7455 2.89074 30.6064 2.64148 30.3586C2.39415 30.1094 2.25536 29.7726 2.25536 29.4215C2.25536 29.0704 2.39415 28.7336 2.64148 28.4844L12.3043 18.8205L14.1802 20.6947L4.51729 30.3586ZM11.2696 14.4364L17.8712 7.83513L25.1645 15.1281L18.5644 21.7294L11.2696 14.4364ZM21.1734 27.1984L18.8083 24.8334L19.3996 24.2422L27.6774 15.9648L28.2687 15.3735L30.6338 17.7385L21.1734 27.1984Z" fill="#1B51A6"/>
</svg>
