<svg width="20" height="24" viewBox="0 0 20 24" fill="none" xmlns="http://www.w3.org/2000/svg">
<path d="M19.7341 6.73154L13.3705 0.27C13.286 0.184307 13.1857 0.116356 13.0753 0.0700282C12.965 0.0237007 12.8467 -9.50639e-05 12.7273 2.85414e-07H1.81818C1.33597 2.85414e-07 0.873508 0.194505 0.532533 0.540726C0.191558 0.886947 0 1.35652 0 1.84615V22.1538C0 22.6435 0.191558 23.1131 0.532533 23.4593C0.873508 23.8055 1.33597 24 1.81818 24H18.1818C18.664 24 19.1265 23.8055 19.4675 23.4593C19.8084 23.1131 20 22.6435 20 22.1538V7.38462C20.0001 7.26336 19.9767 7.14327 19.931 7.03122C19.8854 6.91916 19.8185 6.81733 19.7341 6.73154ZM13.6364 3.15115L16.8966 6.46154H13.6364V3.15115ZM18.1818 22.1538H1.81818V1.84615H11.8182V7.38462C11.8182 7.62943 11.914 7.86422 12.0844 8.03733C12.2549 8.21044 12.4862 8.30769 12.7273 8.30769H18.1818V22.1538ZM14.5455 12.9231C14.5455 13.1679 14.4497 13.4027 14.2792 13.5758C14.1087 13.7489 13.8775 13.8462 13.6364 13.8462H6.36364C6.12253 13.8462 5.8913 13.7489 5.72081 13.5758C5.55032 13.4027 5.45455 13.1679 5.45455 12.9231C5.45455 12.6783 5.55032 12.4435 5.72081 12.2704C5.8913 12.0973 6.12253 12 6.36364 12H13.6364C13.8775 12 14.1087 12.0973 14.2792 12.2704C14.4497 12.4435 14.5455 12.6783 14.5455 12.9231ZM14.5455 16.6154C14.5455 16.8602 14.4497 17.095 14.2792 17.2681C14.1087 17.4412 13.8775 17.5385 13.6364 17.5385H6.36364C6.12253 17.5385 5.8913 17.4412 5.72081 17.2681C5.55032 17.095 5.45455 16.8602 5.45455 16.6154C5.45455 16.3706 5.55032 16.1358 5.72081 15.9627C5.8913 15.7896 6.12253 15.6923 6.36364 15.6923H13.6364C13.8775 15.6923 14.1087 15.7896 14.2792 15.9627C14.4497 16.1358 14.5455 16.3706 14.5455 16.6154Z" fill="black"/>
</svg>
