<svg width="18" height="18" viewBox="42 1 5 17" fill="none" xmlns="http://www.w3.org/2000/svg">
<path d="M45.25 9C45.25 9.2225 45.184 9.44001 45.0604 9.62502C44.9368 9.81002 44.7611 9.95422 44.5555 10.0394C44.35 10.1245 44.1238 10.1468 43.9055 10.1034C43.6873 10.06 43.4868 9.95283 43.3295 9.7955C43.1722 9.63816 43.065 9.43771 43.0216 9.21948C42.9782 9.00125 43.0005 8.77505 43.0856 8.56948C43.1708 8.36391 43.315 8.18821 43.5 8.0646C43.685 7.94098 43.9025 7.875 44.125 7.875C44.4234 7.875 44.7095 7.99353 44.9205 8.20451C45.1315 8.41548 45.25 8.70163 45.25 9ZM44.125 3.75C44.3475 3.75 44.565 3.68402 44.75 3.5604C44.935 3.43679 45.0792 3.26109 45.1644 3.05552C45.2495 2.84995 45.2718 2.62375 45.2284 2.40552C45.185 2.1873 45.0778 1.98684 44.9205 1.82951C44.7632 1.67217 44.5627 1.56503 44.3445 1.52162C44.1262 1.47821 43.9 1.50049 43.6945 1.58564C43.4889 1.67078 43.3132 1.81498 43.1896 1.99998C43.066 2.18499 43 2.4025 43 2.625C43 2.92337 43.1185 3.20952 43.3295 3.4205C43.5405 3.63147 43.8266 3.75 44.125 3.75ZM44.125 14.25C43.9025 14.25 43.685 14.316 43.5 14.4396C43.315 14.5632 43.1708 14.7389 43.0856 14.9445C43.0005 15.15 42.9782 15.3762 43.0216 15.5945C43.065 15.8127 43.1722 16.0132 43.3295 16.1705C43.4868 16.3278 43.6873 16.435 43.9055 16.4784C44.1238 16.5218 44.35 16.4995 44.5555 16.4144C44.7611 16.3292 44.9368 16.185 45.0604 16C45.184 15.815 45.25 15.5975 45.25 15.375C45.25 15.0766 45.1315 14.7905 44.9205 14.5795C44.7095 14.3685 44.4234 14.25 44.125 14.25Z" fill="#102E44"/>
</svg>
