<svg width="40" height="34" viewBox="0 0 40 34" fill="none" xmlns="http://www.w3.org/2000/svg">
<path d="M39.8982 17.8854L34.1839 3.71875C34.0581 3.4067 33.8245 3.14918 33.5248 2.99217C33.2252 2.83517 32.8791 2.78891 32.5482 2.86167L21.4286 5.3125V1.41667C21.4286 1.04094 21.2781 0.680609 21.0102 0.414932C20.7422 0.149256 20.3789 0 20 0C19.6211 0 19.2578 0.149256 18.9898 0.414932C18.7219 0.680609 18.5714 1.04094 18.5714 1.41667V5.94646L6.83216 8.53365C6.60582 8.58323 6.39505 8.68668 6.21803 8.83507C6.04101 8.98347 5.90306 9.17235 5.81609 9.38542V9.39604L0.101813 23.5521C0.0334544 23.7209 -0.0011165 23.9014 2.74906e-05 24.0833C2.74906e-05 28.2111 4.38216 29.75 7.14287 29.75C9.90358 29.75 14.2857 28.2111 14.2857 24.0833C14.2869 23.9014 14.2523 23.7209 14.1839 23.5521L9.09287 10.9384L18.5714 8.85417V31.1667H15.7143C15.3354 31.1667 14.972 31.3159 14.7041 31.5816C14.4362 31.8473 14.2857 32.2076 14.2857 32.5833C14.2857 32.9591 14.4362 33.3194 14.7041 33.5851C14.972 33.8507 15.3354 34 15.7143 34H24.2857C24.6646 34 25.028 33.8507 25.2959 33.5851C25.5638 33.3194 25.7143 32.9591 25.7143 32.5833C25.7143 32.2076 25.5638 31.8473 25.2959 31.5816C25.028 31.3159 24.6646 31.1667 24.2857 31.1667H21.4286V8.22021L30.5357 6.21562L25.8161 17.8854C25.7477 18.0543 25.7131 18.2347 25.7143 18.4167C25.7143 22.5445 30.0964 24.0833 32.8571 24.0833C35.6178 24.0833 40 22.5445 40 18.4167C40.0011 18.2347 39.9665 18.0543 39.8982 17.8854ZM7.14287 26.9167C5.79823 26.9167 3.07859 26.2774 2.86967 24.3242L7.14287 13.731L11.4161 24.3242C11.2072 26.2774 8.48752 26.9167 7.14287 26.9167ZM32.8571 21.25C31.5125 21.25 28.7928 20.6107 28.5839 18.6575L32.8571 8.06437L37.1303 18.6575C36.9214 20.6107 34.2018 21.25 32.8571 21.25Z" fill="#FAB84C"/>
</svg>
