<svg width="20" height="19" viewBox="0 0 20 19" fill="none" xmlns="http://www.w3.org/2000/svg">
<path d="M18.4615 3.45455H10.3183L7.69231 0.506315C7.54997 0.345225 7.38052 0.217508 7.19383 0.13059C7.00714 0.0436707 6.80692 -0.000716212 6.60481 8.73886e-06H1.53846C1.13044 8.73886e-06 0.739122 0.181989 0.450605 0.505915C0.162087 0.829841 0 1.26918 0 1.72728V17.3397C0.000508837 17.7798 0.156479 18.2018 0.433706 18.5131C0.710933 18.8243 1.08679 18.9994 1.47885 19H18.5471C18.9323 18.9994 19.3015 18.8274 19.5739 18.5216C19.8463 18.2158 19.9995 17.8013 20 17.3688V5.18182C20 4.72372 19.8379 4.28439 19.5494 3.96046C19.2609 3.63653 18.8696 3.45455 18.4615 3.45455ZM1.53846 1.72728H6.60481L8.14327 3.45455H1.53846V1.72728ZM18.4615 17.2727H1.53846V5.18182H18.4615V17.2727Z" fill="#020202"/>
</svg>
