<svg width="32" height="37" viewBox="0 0 32 37" fill="none" xmlns="http://www.w3.org/2000/svg">
<path fill-rule="evenodd" clip-rule="evenodd" d="M23.2727 34.1538H2.90909V8.53846H16.8527L23.2727 14.8196V29.8562V29.8846V29.9131V34.1538ZM18.4831 23.7755C18.7558 23.5086 18.9091 23.1467 18.9091 22.7692C18.9091 22.3918 18.7558 22.0298 18.4831 21.763C18.2103 21.4961 17.8403 21.3462 17.4545 21.3462H8.72727C8.3415 21.3462 7.97153 21.4961 7.69875 21.763C7.42597 22.0298 7.27273 22.3918 7.27273 22.7692C7.27273 23.1467 7.42597 23.5086 7.69875 23.7755C7.97153 24.0424 8.3415 24.1923 8.72727 24.1923H17.4545C17.8403 24.1923 18.2103 24.0424 18.4831 23.7755ZM18.4831 29.4678C18.7558 29.2009 18.9091 28.839 18.9091 28.4615C18.9091 28.0841 18.7558 27.7221 18.4831 27.4553C18.2103 27.1884 17.8403 27.0385 17.4545 27.0385H8.72727C8.3415 27.0385 7.97153 27.1884 7.69875 27.4553C7.42597 27.7221 7.27273 28.0841 7.27273 28.4615C7.27273 28.839 7.42597 29.2009 7.69875 29.4678C7.97153 29.7347 8.3415 29.8846 8.72727 29.8846H17.4545C17.8403 29.8846 18.2103 29.7347 18.4831 29.4678Z" fill="#FDA000"/>
<path fill-rule="evenodd" clip-rule="evenodd" d="M31.5745 7.53163L24.3018 0.41625C24.1666 0.28414 24.0062 0.179382 23.8296 0.10796C23.653 0.0365387 23.4638 -0.000146557 23.2727 4.40013e-07H8.72727C7.95573 4.40013e-07 7.2158 0.299862 6.67024 0.833619C6.12468 1.36738 5.81818 2.09131 5.81818 2.84615V5.69231H2.90909C2.13755 5.69231 1.39761 5.99217 0.852053 6.52593C0.306493 7.05968 0 7.78361 0 8.53846V34.1538C0 34.9087 0.306493 35.6326 0.852053 36.1664C1.39761 36.7001 2.13755 37 2.90909 37H23.2727C24.0443 37 24.7842 36.7001 25.3298 36.1664C25.8753 35.6326 26.1818 34.9087 26.1818 34.1538V31.3077H29.0909C29.8624 31.3077 30.6024 31.0078 31.1479 30.4741C31.6935 29.9403 32 29.2164 32 28.4615V8.53846C32.0001 8.35153 31.9627 8.16639 31.8897 7.99364C31.8167 7.82088 31.7096 7.66389 31.5745 7.53163ZM23.2727 34.1538H2.90909V8.53846H16.8527L23.2727 14.8196V29.8562V29.8846V29.9131V34.1538ZM29.0909 28.4615H26.1818V14.2308C26.182 14.0438 26.1445 13.8587 26.0715 13.6859C25.9985 13.5132 25.8914 13.3562 25.7564 13.2239L18.4836 6.10856C18.3485 5.97645 18.188 5.87169 18.0114 5.80027C17.8348 5.72885 17.6456 5.69216 17.4545 5.69231H8.72727V2.84615H22.6709L29.0909 9.12726V28.4615Z" fill="#FDA000"/>
</svg>
