<svg width="33" height="28" viewBox="0 0 33 28" fill="none" xmlns="http://www.w3.org/2000/svg">
<path d="M30.4615 5.09092H17.0251L12.6923 0.746149C12.4574 0.508753 12.1779 0.320539 11.8698 0.192448C11.5618 0.0643568 11.2314 -0.00105547 10.8979 1.28783e-05H2.53846C1.86522 1.28783e-05 1.21955 0.268194 0.743498 0.745559C0.267444 1.22292 0 1.87037 0 2.54547V25.5532C0.00083958 26.2019 0.25819 26.8237 0.715615 27.2824C1.17304 27.7411 1.7932 27.9992 2.4401 28H30.6027C31.2383 27.9992 31.8475 27.7456 32.2969 27.295C32.7463 26.8444 32.9992 26.2334 33 25.5961V7.63637C33 6.96128 32.7326 6.31383 32.2565 5.83647C31.7804 5.3591 31.1348 5.09092 30.4615 5.09092ZM2.53846 2.54547H10.8979L13.4364 5.09092H2.53846V2.54547ZM30.4615 25.4545H2.53846V7.63637H30.4615V25.4545Z" fill="#757B87"/>
</svg>
