<svg width="28" height="21" viewBox="0 0 28 21" fill="none" xmlns="http://www.w3.org/2000/svg">
<path d="M19.8722 14.9935L17.7328 12.804V20.0455C17.7328 20.2986 17.6345 20.5414 17.4595 20.7204C17.2845 20.8994 17.0471 21 16.7996 21C16.5521 21 16.3147 20.8994 16.1397 20.7204C15.9647 20.5414 15.8664 20.2986 15.8664 20.0455V12.804L13.727 14.9935C13.6403 15.0822 13.5374 15.1526 13.4241 15.2006C13.3108 15.2486 13.1894 15.2733 13.0667 15.2733C12.9441 15.2733 12.8227 15.2486 12.7094 15.2006C12.5961 15.1526 12.4932 15.0822 12.4065 14.9935C12.3198 14.9048 12.251 14.7995 12.2041 14.6837C12.1572 14.5678 12.133 14.4436 12.133 14.3182C12.133 14.1928 12.1572 14.0686 12.2041 13.9527C12.251 13.8368 12.3198 13.7315 12.4065 13.6428L16.1394 9.82466C16.226 9.73591 16.329 9.6655 16.4422 9.61747C16.5555 9.56943 16.677 9.5447 16.7996 9.5447C16.9222 9.5447 17.0437 9.56943 17.157 9.61747C17.2703 9.6655 17.3732 9.73591 17.4599 9.82466L21.1927 13.6428C21.2794 13.7315 21.3482 13.8368 21.3951 13.9527C21.4421 14.0686 21.4662 14.1928 21.4662 14.3182C21.4662 14.4436 21.4421 14.5678 21.3951 14.6837C21.3482 14.7995 21.2794 14.9048 21.1927 14.9935C21.106 15.0822 21.0031 15.1526 20.8898 15.2006C20.7765 15.2486 20.6551 15.2733 20.5325 15.2733C20.4099 15.2733 20.2884 15.2486 20.1751 15.2006C20.0619 15.1526 19.9589 15.0822 19.8722 14.9935ZM17.7328 1.58516e-07C15.8262 0.00147134 13.9576 0.545543 12.3361 1.57134C10.7145 2.59715 9.40401 4.06421 8.55114 5.80841C7.53571 5.65578 6.50042 5.71895 5.50994 5.99396C4.51945 6.26898 3.59503 6.74993 2.79442 7.40679C1.99382 8.06364 1.33422 8.88228 0.856822 9.81159C0.379425 10.7409 0.094484 11.7609 0.0197954 12.8079C-0.0548932 13.8549 0.0822749 14.9064 0.422733 15.8968C0.763191 16.8871 1.29963 17.795 1.99853 18.5638C2.69744 19.3326 3.54381 19.9457 4.48478 20.3649C5.42575 20.784 6.44111 21.0002 7.46745 21H12.1335C12.381 21 12.6184 20.8994 12.7934 20.7204C12.9684 20.5414 13.0667 20.2986 13.0667 20.0455C13.0667 19.7923 12.9684 19.5495 12.7934 19.3705C12.6184 19.1915 12.381 19.0909 12.1335 19.0909H7.46745C5.98242 19.0909 4.55822 18.4875 3.50814 17.4134C2.45807 16.3394 1.86815 14.8826 1.86815 13.3636C1.86815 11.8447 2.45807 10.3879 3.50814 9.31384C4.55822 8.23977 5.98242 7.63636 7.46745 7.63636C7.59576 7.63636 7.72408 7.63636 7.85123 7.65068C7.59613 8.57795 7.46699 9.53672 7.46745 10.5C7.46745 10.7532 7.56577 10.996 7.74078 11.175C7.91579 11.354 8.15316 11.4545 8.40066 11.4545C8.64817 11.4545 8.88553 11.354 9.06054 11.175C9.23556 10.996 9.33388 10.7532 9.33388 10.5C9.33411 8.9512 9.74368 7.43127 10.5192 6.10106C11.2948 4.77085 12.4075 3.67983 13.7396 2.94347C15.0717 2.20711 16.5737 1.85279 18.0865 1.91801C19.5994 1.98324 21.0668 2.46558 22.3336 3.31399C23.6005 4.1624 24.6195 5.34532 25.2828 6.73757C25.9462 8.12982 26.2293 9.67962 26.1021 11.2229C25.9749 12.7663 25.4422 14.2457 24.5603 15.5047C23.6784 16.7637 22.4802 17.7555 21.0924 18.375C20.8953 18.4624 20.7338 18.6166 20.635 18.8117C20.5362 19.0067 20.5062 19.2307 20.55 19.4457C20.5939 19.6608 20.7089 19.8538 20.8757 19.9922C21.0425 20.1305 21.2509 20.2058 21.4657 20.2053C21.5943 20.2052 21.7214 20.1776 21.839 20.1242C24.0009 19.1596 25.7722 17.4629 26.8548 15.3194C27.9374 13.176 28.2654 10.7165 27.7835 8.35483C27.3016 5.99312 26.0393 3.87319 24.2088 2.35159C22.3784 0.830003 20.0915 -0.000418887 17.7328 1.58516e-07Z" fill="#3D6A8A"/>
</svg>
