<svg width="30" height="30" viewBox="0 0 30 30" fill="none" xmlns="http://www.w3.org/2000/svg">
<path d="M7.05882 0H8.82353C9.29156 0 9.74042 0.166353 10.0714 0.462463C10.4023 0.758573 10.5882 1.16018 10.5882 1.57895V3.15789H19.4118V1.57895C19.4118 1.16018 19.5977 0.758573 19.9286 0.462463C20.2596 0.166353 20.7084 0 21.1765 0H22.9412C23.4092 0 23.8581 0.166353 24.189 0.462463C24.52 0.758573 24.7059 1.16018 24.7059 1.57895V3.15789C26.11 3.15789 27.4566 3.65695 28.4494 4.54528C29.4422 5.43361 30 6.63845 30 7.89474V25.2632C30 26.5194 29.4422 27.7243 28.4494 28.6126C27.4566 29.5009 26.11 30 24.7059 30H5.29412C3.89003 30 2.54345 29.5009 1.55061 28.6126C0.557772 27.7243 0 26.5194 0 25.2632V7.89474C0 6.63845 0.557772 5.43361 1.55061 4.54528C2.54345 3.65695 3.89003 3.15789 5.29412 3.15789V1.57895C5.29412 1.16018 5.48004 0.758573 5.81099 0.462463C6.14193 0.166353 6.59079 0 7.05882 0ZM21.1765 3.15789H22.9412V1.57895H21.1765V3.15789ZM8.82353 3.15789V1.57895H7.05882V3.15789H8.82353ZM5.29412 4.73684C4.35806 4.73684 3.46034 5.06955 2.79845 5.66177C2.13655 6.25399 1.76471 7.05721 1.76471 7.89474V9.47368H28.2353V7.89474C28.2353 7.05721 27.8634 6.25399 27.2016 5.66177C26.5397 5.06955 25.6419 4.73684 24.7059 4.73684H5.29412ZM1.76471 25.2632C1.76471 26.1007 2.13655 26.9039 2.79845 27.4961C3.46034 28.0883 4.35806 28.4211 5.29412 28.4211H24.7059C25.6419 28.4211 26.5397 28.0883 27.2016 27.4961C27.8634 26.9039 28.2353 26.1007 28.2353 25.2632V11.0526H1.76471V25.2632ZM15.8824 17.3684H24.7059V25.2632H15.8824V17.3684ZM17.6471 18.9474V23.6842H22.9412V18.9474H17.6471Z" fill="#3D6A8A"/>
</svg>
