<svg width="28" height="23" viewBox="0 0 28 23" fill="none" xmlns="http://www.w3.org/2000/svg">
<path d="M25.8462 4.18183H14.4456L10.7692 0.612908C10.57 0.417904 10.3327 0.2633 10.0714 0.158082C9.80999 0.0528645 9.52968 -0.000866994 9.24673 1.05786e-05H2.15385C1.58261 1.05786e-05 1.03477 0.220302 0.630847 0.612423C0.226922 1.00454 0 1.53638 0 2.09092V20.9901C0.000712371 21.523 0.21907 22.0338 0.607188 22.4106C0.995306 22.7873 1.5215 22.9993 2.07038 23H25.966C26.5052 22.9993 27.0222 22.791 27.4035 22.4209C27.7848 22.0507 27.9993 21.5489 28 21.0254V6.27274C28 5.71819 27.7731 5.18636 27.3692 4.79424C26.9652 4.40212 26.4174 4.18183 25.8462 4.18183ZM2.15385 2.09092H9.24673L11.4006 4.18183H2.15385V2.09092ZM25.8462 20.9091H2.15385V6.27274H25.8462V20.9091Z" fill="#0C1822"/>
</svg>
