<svg width="30" height="30" viewBox="0 0 30 30" fill="none" xmlns="http://www.w3.org/2000/svg">
<path d="M0.833344 30C0.596678 30 0.398344 29.9159 0.238345 29.7476C0.0783446 29.5794 -0.00109962 29.3694 1.14943e-05 29.1176C0.0011226 28.8659 0.0805668 28.6559 0.238345 28.4876C0.396122 28.3194 0.594456 28.2353 0.833344 28.2353H14.1667V8.71765C13.38 8.56588 12.6856 8.18824 12.0833 7.58471C11.4811 6.98118 11.0978 6.21765 10.9333 5.29412H5.19334L9.68001 17.1865C9.79778 17.4641 9.85945 17.7494 9.86501 18.0424C9.87056 18.3353 9.84612 18.6247 9.79167 18.9106C9.54167 19.9918 8.9289 20.8206 7.95334 21.3971C6.97779 21.9735 5.99334 22.2618 5.00001 22.2618C4.00668 22.2618 3.02223 21.9735 2.04668 21.3971C1.07112 20.8206 0.458345 19.9912 0.208345 18.9088C0.152789 18.6241 0.128345 18.3353 0.135012 18.0424C0.141678 17.7494 0.203345 17.4635 0.320011 17.1847L4.80834 5.29412H2.50001C2.26334 5.29412 2.06501 5.21 1.90501 5.04176C1.74501 4.87353 1.66557 4.66353 1.66668 4.41176C1.66779 4.16 1.74723 3.95 1.90501 3.78176C2.06279 3.61353 2.26112 3.52941 2.50001 3.52941H10.9333C11.1167 2.54588 11.58 1.71176 12.3233 1.02706C13.0667 0.342353 13.9589 0 15 0C16.0411 0 16.9333 0.342353 17.6767 1.02706C18.42 1.71176 18.8833 2.54588 19.0667 3.52941H27.5C27.7378 3.52941 27.9361 3.61353 28.095 3.78176C28.2539 3.95 28.3333 4.16 28.3333 4.41176C28.3333 4.66353 28.2539 4.87353 28.095 5.04176C27.9361 5.21 27.7378 5.29412 27.5 5.29412H25.1933L29.68 17.1865C29.7978 17.4641 29.8594 17.7494 29.865 18.0424C29.8706 18.3353 29.8461 18.6247 29.7917 18.9106C29.5417 19.9918 28.9289 20.8206 27.9533 21.3971C26.9778 21.9735 25.9933 22.2618 25 22.2618C24.0067 22.2618 23.0222 21.9735 22.0467 21.3971C21.0711 20.8206 20.4583 19.9912 20.2083 18.9088C20.1528 18.6241 20.1283 18.3353 20.135 18.0424C20.1417 17.7494 20.2033 17.4635 20.32 17.1847L24.8067 5.29412H19.0683C18.9028 6.21765 18.5189 6.98118 17.9167 7.58471C17.3144 8.18824 16.62 8.56647 15.8333 8.71941V28.2353H29.1667C29.4044 28.2353 29.6028 28.3194 29.7617 28.4876C29.9206 28.6559 30 28.8659 30 29.1176C30 29.3694 29.9206 29.5794 29.7617 29.7476C29.6028 29.9159 29.4044 30 29.1667 30H0.833344Z" fill="#3D6A8A"/>
</svg>
