<svg width="12" height="10" viewBox="0 0 12 10" fill="none" xmlns="http://www.w3.org/2000/svg">
<path d="M12 5C12 5.1326 11.9473 5.25977 11.8536 5.35353C11.7598 5.4473 11.6326 5.49997 11.5 5.49997H1.70721L5.35397 9.14602C5.40042 9.19247 5.43727 9.24762 5.46241 9.30831C5.48755 9.36901 5.50049 9.43406 5.50049 9.49975C5.50049 9.56544 5.48755 9.63049 5.46241 9.69119C5.43727 9.75188 5.40042 9.80703 5.35397 9.85348C5.30751 9.89993 5.25237 9.93678 5.19167 9.96192C5.13098 9.98706 5.06593 10 5.00023 10C4.93453 10 4.86948 9.98706 4.80879 9.96192C4.74809 9.93678 4.69294 9.89993 4.64649 9.85348L0.146638 5.35373C0.100152 5.3073 0.0632735 5.25215 0.0381122 5.19146C0.0129509 5.13076 0 5.0657 0 5C0 4.9343 0.0129509 4.86924 0.0381122 4.80854C0.0632735 4.74784 0.100152 4.6927 0.146638 4.64627L4.64649 0.14652C4.74031 0.0527047 4.86755 -9.88503e-10 5.00023 0C5.13291 9.88503e-10 5.26015 0.0527047 5.35397 0.14652C5.44779 0.240335 5.50049 0.367576 5.50049 0.50025C5.50049 0.632925 5.44779 0.760165 5.35397 0.85398L1.70721 4.50003H11.5C11.6326 4.50003 11.7598 4.5527 11.8536 4.64647C11.9473 4.74023 12 4.8674 12 5Z" fill="#3D6A8A"/>
</svg>
