<svg width="20" height="22" viewBox="0 0 20 22" fill="none" xmlns="http://www.w3.org/2000/svg">
<path d="M18.3333 1.69231H15.8333V0.846154C15.8333 0.62174 15.7455 0.406517 15.5893 0.247833C15.433 0.0891481 15.221 0 15 0C14.779 0 14.567 0.0891481 14.4107 0.247833C14.2545 0.406517 14.1667 0.62174 14.1667 0.846154V1.69231H5.83333V0.846154C5.83333 0.62174 5.74554 0.406517 5.58926 0.247833C5.43297 0.0891481 5.22101 0 5 0C4.77899 0 4.56702 0.0891481 4.41074 0.247833C4.25446 0.406517 4.16667 0.62174 4.16667 0.846154V1.69231H1.66667C1.22464 1.69231 0.800716 1.8706 0.488155 2.18797C0.175595 2.50534 0 2.93579 0 3.38462V20.3077C0 20.7565 0.175595 21.187 0.488155 21.5043C0.800716 21.8217 1.22464 22 1.66667 22H18.3333C18.7754 22 19.1993 21.8217 19.5118 21.5043C19.8244 21.187 20 20.7565 20 20.3077V3.38462C20 2.93579 19.8244 2.50534 19.5118 2.18797C19.1993 1.8706 18.7754 1.69231 18.3333 1.69231ZM4.16667 3.38462V4.23077C4.16667 4.45518 4.25446 4.67041 4.41074 4.82909C4.56702 4.98777 4.77899 5.07692 5 5.07692C5.22101 5.07692 5.43297 4.98777 5.58926 4.82909C5.74554 4.67041 5.83333 4.45518 5.83333 4.23077V3.38462H14.1667V4.23077C14.1667 4.45518 14.2545 4.67041 14.4107 4.82909C14.567 4.98777 14.779 5.07692 15 5.07692C15.221 5.07692 15.433 4.98777 15.5893 4.82909C15.7455 4.67041 15.8333 4.45518 15.8333 4.23077V3.38462H18.3333V6.76923H1.66667V3.38462H4.16667ZM18.3333 20.3077H1.66667V8.46154H18.3333V20.3077Z" fill="#020202"/>
</svg>
