<svg width="33" height="38" viewBox="0 0 33 38" fill="none" xmlns="http://www.w3.org/2000/svg">
<path fill-rule="evenodd" clip-rule="evenodd" d="M32.5612 10.6583L22.0613 0.4275C21.9218 0.291819 21.7564 0.18423 21.5743 0.110878C21.3922 0.0375262 21.197 -0.000150518 21 4.51906e-07H3C2.20435 4.51906e-07 1.44129 0.307966 0.87868 0.85615C0.31607 1.40433 0 2.14783 0 2.92308V35.0769C0 35.8522 0.31607 36.5957 0.87868 37.1438C1.44129 37.692 2.20435 38 3 38H30C30.7957 38 31.5587 37.692 32.1213 37.1438C32.6839 36.5957 33 35.8522 33 35.0769V11.6923C33.0002 11.5003 32.9615 11.3102 32.8862 11.1328C32.8109 10.9553 32.7005 10.7941 32.5612 10.6583ZM27.8794 10.2308L22.5 4.98933V10.2308H27.8794ZM3 35.0769H30V13.1538H21C20.6022 13.1538 20.2206 12.9999 19.9393 12.7258C19.658 12.4517 19.5 12.0799 19.5 11.6923V2.92308H3V35.0769Z" fill="#EDF4FB"/>
<path fill-rule="evenodd" clip-rule="evenodd" d="M30 35.0769H3V2.92308H19.5V11.6923C19.5 12.0799 19.658 12.4517 19.9393 12.7258C20.2206 12.9999 20.6022 13.1538 21 13.1538H30V35.0769ZM23.5607 21.495C23.842 21.2209 24 20.8492 24 20.4615C24 20.0739 23.842 19.7022 23.5607 19.4281C23.2794 19.154 22.8978 19 22.5 19H10.5C10.1022 19 9.72064 19.154 9.43934 19.4281C9.15804 19.7022 9 20.0739 9 20.4615C9 20.8492 9.15804 21.2209 9.43934 21.495C9.72064 21.7691 10.1022 21.9231 10.5 21.9231H22.5C22.8978 21.9231 23.2794 21.7691 23.5607 21.495ZM23.5607 27.3412C23.842 27.0671 24 26.6953 24 26.3077C24 25.9201 23.842 25.5483 23.5607 25.2742C23.2794 25.0001 22.8978 24.8462 22.5 24.8462H10.5C10.1022 24.8462 9.72064 25.0001 9.43934 25.2742C9.15804 25.5483 9 25.9201 9 26.3077C9 26.6953 9.15804 27.0671 9.43934 27.3412C9.72064 27.6152 10.1022 27.7692 10.5 27.7692H22.5C22.8978 27.7692 23.2794 27.6152 23.5607 27.3412Z" fill="#EDF4FB"/>
<path d="M24 20.4615C24 20.8492 23.842 21.2209 23.5607 21.495C23.2794 21.7691 22.8978 21.9231 22.5 21.9231H10.5C10.1022 21.9231 9.72064 21.7691 9.43934 21.495C9.15804 21.2209 9 20.8492 9 20.4615C9 20.0739 9.15804 19.7022 9.43934 19.4281C9.72064 19.154 10.1022 19 10.5 19H22.5C22.8978 19 23.2794 19.154 23.5607 19.4281C23.842 19.7022 24 20.0739 24 20.4615Z" fill="#1B51A6"/>
<path d="M24 26.3077C24 26.6953 23.842 27.0671 23.5607 27.3412C23.2794 27.6152 22.8978 27.7692 22.5 27.7692H10.5C10.1022 27.7692 9.72064 27.6152 9.43934 27.3412C9.15804 27.0671 9 26.6953 9 26.3077C9 25.9201 9.15804 25.5483 9.43934 25.2742C9.72064 25.0001 10.1022 24.8462 10.5 24.8462H22.5C22.8978 24.8462 23.2794 25.0001 23.5607 25.2742C23.842 25.5483 24 25.9201 24 26.3077Z" fill="#1B51A6"/>
<path d="M22.5 4.98933L27.8794 10.2308H22.5V4.98933Z" fill="#1B51A6"/>
</svg>
