<svg width="40" height="40" viewBox="0 0 40 40" fill="none" xmlns="http://www.w3.org/2000/svg">
<path fill-rule="evenodd" clip-rule="evenodd" d="M28.2824 11.6165C28.5168 11.3825 28.8345 11.251 29.1658 11.251C29.497 11.251 29.8147 11.3825 30.0491 11.6165L30.0524 11.6199L30.0574 11.6232L30.0691 11.6349L30.1024 11.6682L30.2058 11.7832C30.2891 11.8782 30.4058 12.0132 30.5408 12.1849C32.0807 14.1865 32.9157 16.6411 32.9158 19.1665C32.9157 21.692 32.0807 24.1466 30.5408 26.1482C30.4012 26.3263 30.2544 26.4987 30.1008 26.6649L30.0674 26.6982L30.0574 26.7099L30.0524 26.7132L30.0508 26.7149L29.2008 25.8682L30.0508 26.7182C29.8163 26.9527 29.4982 27.0844 29.1666 27.0844C28.835 27.0844 28.5169 26.9527 28.2824 26.7182C28.0479 26.4837 27.9162 26.1657 27.9162 25.834C27.9162 25.5024 28.0479 25.1844 28.2824 24.9499L28.2808 24.9515L28.2774 24.9532L28.2858 24.9449L28.3408 24.8849C28.3941 24.8271 28.4713 24.7343 28.5724 24.6065C29.6268 23.2301 30.2587 21.577 30.3912 19.8482C30.5238 18.1194 30.1513 16.3893 29.3191 14.8682C29.1018 14.4679 28.8521 14.0861 28.5724 13.7265C28.4819 13.6096 28.3863 13.4967 28.2858 13.3882L28.2774 13.3799C28.045 13.145 27.9151 12.8276 27.916 12.4972C27.917 12.1667 28.0487 11.8501 28.2824 11.6165Z" fill="#0C1822"/>
<path fill-rule="evenodd" clip-rule="evenodd" d="M33.2827 6.61672C33.5171 6.38264 33.8348 6.25115 34.166 6.25115C34.4973 6.25115 34.815 6.38264 35.0493 6.61672L35.0543 6.62005L35.0593 6.62505L35.0743 6.64172C35.1466 6.71298 35.2156 6.7875 35.281 6.86505C35.4127 7.01339 35.5943 7.22839 35.8077 7.50672C36.236 8.06172 36.7977 8.87839 37.356 9.94005C38.4727 12.0634 39.5827 15.1784 39.5827 19.1667C39.5827 23.1551 38.4727 26.2701 37.356 28.3951C36.9112 29.2494 36.3931 30.0635 35.8077 30.8284C35.5774 31.1279 35.3326 31.416 35.0743 31.6917L35.0577 31.7084L35.0543 31.7134L35.051 31.7151L34.166 30.8334L35.0493 31.7167C34.8137 31.9445 34.498 32.0707 34.1703 32.068C33.8425 32.0653 33.5289 31.934 33.2971 31.7023C33.0652 31.4707 32.9336 31.1572 32.9306 30.8295C32.9276 30.5017 33.0534 30.1859 33.281 29.9501L33.3043 29.9267L33.4093 29.8101C33.5082 29.7012 33.6471 29.5323 33.826 29.3034C34.1793 28.8434 34.6593 28.1484 35.1427 27.2301C36.1093 25.3967 37.0827 22.6784 37.0827 19.1667C37.0827 15.6551 36.1093 12.9367 35.1427 11.1034C34.7632 10.3763 34.3227 9.68268 33.826 9.03005C33.6606 8.81529 33.4866 8.60734 33.3043 8.40672L33.281 8.38339C33.0469 8.14901 32.9154 7.83131 32.9154 7.50005C32.9154 7.1688 33.0486 6.8511 33.2827 6.61672ZM20.061 5.66005C21.9993 4.38172 24.5827 5.77339 24.5827 8.09505V31.9051C24.5827 34.2284 21.9993 35.6184 20.061 34.3401L10.061 27.7484C9.99336 27.7033 9.91399 27.6789 9.83268 27.6784H4.99935C3.78377 27.6784 2.61798 27.1955 1.75844 26.336C0.898901 25.4764 0.416016 24.3106 0.416016 23.0951V16.9051C0.416016 16.3032 0.534567 15.7072 0.764901 15.1511C0.995235 14.595 1.33284 14.0897 1.75844 13.6641C2.18404 13.2385 2.68931 12.9009 3.24538 12.6706C3.80146 12.4403 4.39746 12.3217 4.99935 12.3217H9.83268C9.91439 12.322 9.99437 12.2982 10.0627 12.2534L20.061 5.66005Z" fill="#0C1822"/>
</svg>
