<svg width="26" height="26" viewBox="0 0 26 26" fill="none" xmlns="http://www.w3.org/2000/svg">
<path d="M15.9311 4.67247H10.0681C9.35931 4.67219 8.65744 4.81156 8.00257 5.08262C7.3477 5.35369 6.75266 5.75113 6.25144 6.25225C5.75023 6.75336 5.35266 7.34833 5.08147 8.00314C4.81027 8.65796 4.67076 9.3598 4.6709 10.0686V15.9316C4.67061 16.6404 4.81002 17.3424 5.08115 17.9973C5.35229 18.6522 5.74983 19.2473 6.25106 19.7486C6.75229 20.2498 7.34738 20.6473 8.00232 20.9185C8.65727 21.1896 9.35922 21.329 10.0681 21.3287H15.9311C16.6399 21.329 17.3419 21.1896 17.9968 20.9185C18.6518 20.6473 19.2468 20.2498 19.7481 19.7486C20.2493 19.2473 20.6468 18.6522 20.918 17.9973C21.1891 17.3424 21.3285 16.6404 21.3282 15.9316V10.0686C21.3285 9.35971 21.1891 8.65775 20.918 8.00281C20.6468 7.34787 20.2493 6.75278 19.7481 6.25155C19.2468 5.75032 18.6518 5.35277 17.9968 5.08164C17.3419 4.81051 16.6399 4.6711 15.9311 4.67139V4.67247Z" stroke="#FAB84C" stroke-width="1.5"/>
<path d="M21.2395 16.8872H22.9934C23.2879 16.8872 23.5704 16.7702 23.7786 16.5619C23.9869 16.3537 24.1038 16.0713 24.1038 15.7768V10.2247C24.1038 9.93017 23.9869 9.64774 23.7786 9.43949C23.5704 9.23125 23.2879 9.11426 22.9934 9.11426H21.2384M4.76092 16.8872H3.00592C2.8601 16.8872 2.71571 16.8585 2.58099 16.8026C2.44626 16.7468 2.32385 16.6651 2.22074 16.5619C2.11763 16.4588 2.03584 16.3364 1.98003 16.2017C1.92423 16.067 1.89551 15.9226 1.89551 15.7768V10.2247C1.89551 9.93017 2.0125 9.64774 2.22074 9.43949C2.42898 9.23125 2.71142 9.11426 3.00592 9.11426H4.76092" stroke="#FAB84C" stroke-width="1.5"/>
<path d="M2.99512 9.11403V4.67236M22.9935 9.11403L22.9826 4.67236M10.7789 16.5067C11.3694 17.0928 12.1677 17.4218 12.9997 17.4218C13.8317 17.4218 14.63 17.0928 15.2205 16.5067M8.53637 11.8895L9.64462 10.7791L10.755 11.8895M15.1989 11.8895L16.3093 10.7791L17.4186 11.8895" stroke="#FAB84C" stroke-width="1.5" stroke-linecap="round" stroke-linejoin="round"/>
</svg>
