<svg width="20" height="20" viewBox="0 0 20 20" fill="none" xmlns="http://www.w3.org/2000/svg">
<path d="M4.25 19C3.76875 19 3.35692 18.8323 3.0145 18.4969C2.67208 18.1614 2.50058 17.7577 2.5 17.2857V8.71429C2.5 8.24286 2.6715 7.83943 3.0145 7.504C3.3575 7.16857 3.76933 7.00057 4.25 7H5.125V5.28571C5.125 4.1 5.55171 3.08943 6.40512 2.254C7.25854 1.41857 8.29017 1.00057 9.5 1C10.7098 0.999429 11.7417 1.41743 12.5957 2.254C13.4497 3.09057 13.8762 4.10114 13.875 5.28571V7H14.75C15.2312 7 15.6434 7.168 15.9864 7.504C16.3294 7.84 16.5006 8.24343 16.5 8.71429V17.2857C16.5 17.7571 16.3288 18.1609 15.9864 18.4969C15.644 18.8329 15.2318 19.0006 14.75 19H4.25ZM4.25 17.2857H14.75V8.71429H4.25V17.2857ZM10.7364 14.2103C11.0788 13.8754 11.25 13.472 11.25 13C11.25 12.528 11.0788 12.1246 10.7364 11.7897C10.394 11.4549 9.98183 11.2869 9.5 11.2857C9.01817 11.2846 8.60633 11.4526 8.2645 11.7897C7.92267 12.1269 7.75117 12.5303 7.75 13C7.74883 13.4697 7.92033 13.8734 8.2645 14.2111C8.60867 14.5489 9.0205 14.7166 9.5 14.7143C9.9795 14.712 10.3916 14.5434 10.7364 14.2103ZM6.875 7H12.125V5.28571C12.125 4.57143 11.8698 3.96429 11.3594 3.46429C10.849 2.96429 10.2292 2.71429 9.5 2.71429C8.77083 2.71429 8.15104 2.96429 7.64062 3.46429C7.13021 3.96429 6.875 4.57143 6.875 5.28571V7Z" fill="#0C1822"/>
</svg>
