<svg width="40" height="40" viewBox="0 0 40 40" fill="none" xmlns="http://www.w3.org/2000/svg">
<path d="M7.01168 28.5551C4.94502 26.4818 3.91168 23.9634 3.91168 21.0001C3.91168 18.0368 4.94557 15.5157 7.01335 13.4368C9.08113 11.3579 11.5939 10.319 14.5517 10.3201C15.8683 10.3201 17.1172 10.544 18.2983 10.9918C19.4795 11.4396 20.5339 12.0662 21.4617 12.8718L23.0517 11.2818L24.1983 12.4301L22.6417 14.0184C23.4472 14.9462 24.0789 16.0029 24.5367 17.1884C24.9945 18.374 25.2239 19.6423 25.225 20.9934C25.225 23.959 24.1878 26.479 22.1133 28.5534C20.0389 30.6279 17.52 31.6657 14.5567 31.6668C11.5933 31.6679 9.07835 30.6307 7.01168 28.5551ZM31.4734 31.6668V11.5268L29 14.0001L27.82 12.8201L32.3083 8.33345L36.795 12.8201L35.6067 14.0001L33.14 11.5351V31.6668H31.4734ZM11.3467 7.95011V6.28345H17.82V7.95011H11.3467ZM20.9367 27.3801C22.6845 25.6323 23.5583 23.5029 23.5583 20.9918C23.5583 18.4807 22.6845 16.3523 20.9367 14.6068C19.1889 12.8612 17.06 11.9879 14.55 11.9868C12.04 11.9857 9.91668 12.8596 8.18002 14.6084C6.44446 16.3551 5.57668 18.4846 5.57668 20.9968C5.57668 23.5079 6.44446 25.6357 8.18002 27.3801C9.91446 29.1268 12.0372 30.0001 14.5483 30.0001C17.0595 30.0001 19.1889 29.1268 20.9367 27.3801ZM13.7183 21.5068H15.385V15.1601H13.7183V21.5068Z" fill="#3D6A8A"/>
</svg>
