<svg width="30" height="30" viewBox="0 0 30 30" fill="none" xmlns="http://www.w3.org/2000/svg">
<path d="M7.5 26.25V23.75L8.75 22.5H5C4.3125 22.5 3.72417 22.2554 3.235 21.7663C2.74583 21.2771 2.50083 20.6883 2.5 20V6.25C2.5 5.5625 2.745 4.97417 3.235 4.485C3.725 3.99583 4.31333 3.75083 5 3.75H25C25.6875 3.75 26.2763 3.995 26.7663 4.485C27.2563 4.975 27.5008 5.56333 27.5 6.25V20C27.5 20.6875 27.2554 21.2763 26.7663 21.7663C26.2771 22.2563 25.6883 22.5008 25 22.5H21.25L22.5 23.75V26.25H7.5ZM5 20H25V6.25H5V20Z" fill="#102E44"/>
</svg>
