<svg width="21" height="22" viewBox="0 0 21 22" fill="none" xmlns="http://www.w3.org/2000/svg">
<path d="M10.1503 13.4393L2.87831 12.5953C2.44774 12.5498 2.1717 12.3221 2.0502 11.9123C1.92869 11.5025 2.02777 11.1561 2.34744 10.8732L14.3141 0.164652C14.3688 0.109362 14.432 0.0683005 14.5037 0.0414682C14.5755 0.0138229 14.679 0 14.8144 0C15.0346 0 15.2083 0.094726 15.3355 0.284178C15.4627 0.47363 15.4639 0.672839 15.3392 0.881805L10.7852 8.58388L18.1036 9.42788C18.5342 9.47341 18.8143 9.69701 18.944 10.0987C19.0736 10.5004 18.9782 10.8431 18.6577 11.1268L6.69106 21.8597C6.63643 21.9142 6.57323 21.9512 6.50147 21.9707C6.4297 21.9902 6.32614 22 6.19077 22C5.97059 22 5.80464 21.9057 5.69292 21.717C5.5812 21.5284 5.57998 21.3369 5.68925 21.1426L10.1503 13.4393Z" fill="#FAB84C"/>
</svg>
