<svg width="40" height="40" viewBox="0 0 40 40" fill="none" xmlns="http://www.w3.org/2000/svg">
<path d="M20.0007 36.6663C17.812 36.6663 15.6447 36.2352 13.6226 35.3977C11.6005 34.5601 9.76318 33.3324 8.21554 31.7848C5.08993 28.6592 3.33398 24.4199 3.33398 19.9997C3.33398 15.5794 5.08993 11.3402 8.21554 8.21456C11.3411 5.08896 15.5804 3.33301 20.0007 3.33301C29.1673 3.33301 36.6673 9.99967 36.6673 18.333C36.6673 20.9852 35.6138 23.5287 33.7384 25.4041C31.863 27.2794 29.3195 28.333 26.6673 28.333H23.6673C23.1673 28.333 22.834 28.6663 22.834 29.1663C22.834 29.333 23.0007 29.4997 23.0007 29.6663C23.6673 30.4997 24.0007 31.4997 24.0007 32.4997C24.1673 34.833 22.334 36.6663 20.0007 36.6663ZM20.0007 6.66634C16.4644 6.66634 13.073 8.0711 10.5726 10.5716C8.07208 13.0721 6.66732 16.4635 6.66732 19.9997C6.66732 23.5359 8.07208 26.9273 10.5726 29.4278C13.073 31.9282 16.4644 33.333 20.0007 33.333C20.5007 33.333 20.834 32.9997 20.834 32.4997C20.834 32.1663 20.6673 31.9997 20.6673 31.833C20.0007 30.9997 19.6673 30.1663 19.6673 29.1663C19.6673 26.833 21.5007 24.9997 23.834 24.9997H26.6673C28.4354 24.9997 30.1311 24.2973 31.3814 23.0471C32.6316 21.7968 33.334 20.1011 33.334 18.333C33.334 11.833 27.334 6.66634 20.0007 6.66634ZM10.834 16.6663C12.1673 16.6663 13.334 17.833 13.334 19.1663C13.334 20.4997 12.1673 21.6663 10.834 21.6663C9.50065 21.6663 8.33398 20.4997 8.33398 19.1663C8.33398 17.833 9.50065 16.6663 10.834 16.6663ZM15.834 9.99967C17.1673 9.99967 18.334 11.1663 18.334 12.4997C18.334 13.833 17.1673 14.9997 15.834 14.9997C14.5007 14.9997 13.334 13.833 13.334 12.4997C13.334 11.1663 14.5007 9.99967 15.834 9.99967ZM24.1673 9.99967C25.5007 9.99967 26.6673 11.1663 26.6673 12.4997C26.6673 13.833 25.5007 14.9997 24.1673 14.9997C22.834 14.9997 21.6673 13.833 21.6673 12.4997C21.6673 11.1663 22.834 9.99967 24.1673 9.99967ZM29.1673 16.6663C30.5007 16.6663 31.6673 17.833 31.6673 19.1663C31.6673 20.4997 30.5007 21.6663 29.1673 21.6663C27.834 21.6663 26.6673 20.4997 26.6673 19.1663C26.6673 17.833 27.834 16.6663 29.1673 16.6663Z" fill="#0C1822"/>
</svg>
