<svg width="30" height="30" viewBox="0 0 30 30" fill="none" xmlns="http://www.w3.org/2000/svg">
<path d="M15.0249 23.0375L14.8999 23.1625L14.7624 23.0375C8.8249 17.65 4.8999 14.0875 4.8999 10.475C4.8999 7.97498 6.7749 6.09998 9.2749 6.09998C11.1999 6.09998 13.0749 7.34998 13.7374 9.04998H16.0624C16.7249 7.34998 18.5999 6.09998 20.5249 6.09998C23.0249 6.09998 24.8999 7.97498 24.8999 10.475C24.8999 14.0875 20.9749 17.65 15.0249 23.0375ZM20.5249 3.59998C18.3499 3.59998 16.2624 4.61248 14.8999 6.19998C13.5374 4.61248 11.4499 3.59998 9.2749 3.59998C5.4249 3.59998 2.3999 6.61248 2.3999 10.475C2.3999 15.1875 6.6499 19.05 13.0874 24.8875L14.8999 26.5375L16.7124 24.8875C23.1499 19.05 27.3999 15.1875 27.3999 10.475C27.3999 6.61248 24.3749 3.59998 20.5249 3.59998Z" fill="#3D6A8A"/>
</svg>
