<svg width="29" height="29" viewBox="0 0 29 29" fill="none" xmlns="http://www.w3.org/2000/svg">
<g clip-path="url(#clip0_1296_2394)">
<path d="M25.0334 15.7808C25.3728 15.4409 25.5635 14.9802 25.5635 14.4999C25.5635 14.0196 25.3728 13.5589 25.0334 13.2191L18.1991 6.38114C17.8591 6.04112 17.3979 5.8501 16.917 5.8501C16.4362 5.8501 15.975 6.04112 15.635 6.38114C15.295 6.72116 15.104 7.18232 15.104 7.66318C15.104 8.14404 15.295 8.6052 15.635 8.94522L19.376 12.6874H5.43786C4.95716 12.6874 4.49615 12.8784 4.15623 13.2183C3.81633 13.5582 3.62536 14.0192 3.62536 14.4999C3.62536 14.9806 3.81633 15.4416 4.15623 15.7816C4.49615 16.1215 4.95716 16.3124 5.43786 16.3124H19.376L15.635 20.0534C15.4666 20.2218 15.3331 20.4217 15.242 20.6416C15.1508 20.8616 15.104 21.0974 15.104 21.3355C15.104 21.5736 15.1508 21.8093 15.242 22.0293C15.3331 22.2493 15.4666 22.4492 15.635 22.6175C15.8033 22.7859 16.0032 22.9194 16.2232 23.0105C16.4432 23.1017 16.6789 23.1486 16.917 23.1486C17.1551 23.1486 17.3909 23.1017 17.6109 23.0105C17.8308 22.9194 18.0307 22.7859 18.1991 22.6175L25.0334 15.7808Z" fill="#0C1822"/>
</g>
<defs>
<clipPath id="clip0_1296_2394">
<rect width="29" height="29" fill="white" transform="matrix(0 1 -1 0 29 0)"/>
</clipPath>
</defs>
</svg>
