<svg width="21" height="21" viewBox="0 0 21 21" fill="none" xmlns="http://www.w3.org/2000/svg">
<path fill-rule="evenodd" clip-rule="evenodd" d="M8.68991 14.413C8.58827 14.4981 8.457 14.5393 8.32496 14.5277C8.19291 14.516 8.0709 14.4524 7.98575 14.3508L4.64253 10.3593C4.5985 10.3093 4.56493 10.2509 4.5438 10.1877C4.52266 10.1244 4.51438 10.0576 4.51945 9.99113C4.52452 9.92466 4.54283 9.85986 4.57331 9.80057C4.60379 9.74127 4.64582 9.68867 4.69693 9.64586C4.74804 9.60304 4.80719 9.57089 4.87091 9.55127C4.93463 9.53166 5.00163 9.52499 5.06797 9.53165C5.13431 9.53831 5.19864 9.55818 5.25719 9.59007C5.31574 9.62196 5.36732 9.66524 5.40889 9.71737L8.75211 13.7088C8.83721 13.8105 8.87845 13.9417 8.86679 14.0738C8.85513 14.2058 8.79151 14.3278 8.68991 14.413Z" fill="#102E44"/>
<path fill-rule="evenodd" clip-rule="evenodd" d="M8.66744 5.64498C8.76946 5.72961 8.83371 5.85129 8.84605 5.98328C8.85839 6.11526 8.81781 6.24674 8.73324 6.34881L5.41048 10.3573C5.36918 10.4097 5.31782 10.4532 5.25944 10.4854C5.20105 10.5176 5.13682 10.5378 5.07052 10.5448C5.00422 10.5518 4.93718 10.5455 4.87336 10.5262C4.80954 10.5069 4.75022 10.475 4.6989 10.4325C4.64757 10.3899 4.60527 10.3375 4.57449 10.2784C4.54371 10.2193 4.52506 10.1546 4.51965 10.0881C4.51425 10.0217 4.52218 9.9548 4.54299 9.89146C4.56381 9.82812 4.59708 9.76959 4.64085 9.7193L7.9636 5.71078C8.04823 5.60876 8.16991 5.54451 8.3019 5.53217C8.43388 5.51983 8.56536 5.56041 8.66744 5.64498Z" fill="#102E44"/>
<path fill-rule="evenodd" clip-rule="evenodd" d="M5.02582 10.0383C5.02548 9.90572 5.07783 9.77841 5.17136 9.6844C5.26489 9.5904 5.39193 9.53739 5.52454 9.53705L15.0245 9.51275C15.1571 9.51241 15.2844 9.56476 15.3784 9.65829C15.4724 9.75182 15.5254 9.87886 15.5258 10.0115C15.5261 10.1441 15.4738 10.2714 15.3802 10.3654C15.2867 10.4594 15.1597 10.5124 15.0271 10.5127L5.5271 10.5371C5.39449 10.5374 5.26718 10.485 5.17317 10.3915C5.07916 10.298 5.02616 10.1709 5.02582 10.0383Z" fill="#102E44"/>
</svg>
