<svg width="28" height="28" viewBox="0 0 28 28" fill="none" xmlns="http://www.w3.org/2000/svg">
<path d="M25.2503 11.9492L18.504 9.49591L16.0508 2.74966C15.8977 2.32864 15.6188 1.96492 15.2519 1.70789C14.8851 1.45086 14.4479 1.31299 14 1.31299C13.552 1.31299 13.1149 1.45086 12.748 1.70789C12.3811 1.96492 12.1022 2.32864 11.9492 2.74966L9.49591 9.49591L2.74966 11.9492C2.32864 12.1022 1.96492 12.3811 1.70789 12.748C1.45086 13.1149 1.31299 13.552 1.31299 14C1.31299 14.4479 1.45086 14.8851 1.70789 15.2519C1.96492 15.6188 2.32864 15.8977 2.74966 16.0508L9.49591 18.504L11.9492 25.2503C12.1022 25.6713 12.3811 26.035 12.748 26.2921C13.1149 26.5491 13.552 26.687 14 26.687C14.4479 26.687 14.8851 26.5491 15.2519 26.2921C15.6188 26.035 15.8977 25.6713 16.0508 25.2503L18.504 18.504L25.2503 16.0508C25.6713 15.8977 26.035 15.6188 26.2921 15.2519C26.5491 14.8851 26.687 14.4479 26.687 14C26.687 13.552 26.5491 13.1149 26.2921 12.748C26.035 12.3811 25.6713 12.1022 25.2503 11.9492ZM17.0319 16.2465C16.8515 16.3121 16.6877 16.4164 16.552 16.552C16.4164 16.6877 16.3121 16.8515 16.2465 17.0319L14 23.2104L11.7534 17.0319C11.6879 16.8515 11.5836 16.6877 11.4479 16.552C11.3122 16.4164 11.1484 16.3121 10.9681 16.2465L4.78951 14L10.9681 11.7534C11.1484 11.6879 11.3122 11.5836 11.4479 11.4479C11.5836 11.3122 11.6879 11.1484 11.7534 10.9681L14 4.78951L16.2465 10.9681C16.3121 11.1484 16.4164 11.3122 16.552 11.4479C16.6877 11.5836 16.8515 11.6879 17.0319 11.7534L23.2104 14L17.0319 16.2465Z" fill="#FAB84C"/>
</svg>
