<svg width="282" height="350" viewBox="0 0 282 350" fill="none" xmlns="http://www.w3.org/2000/svg">
<path d="M262 0C273.046 0 282 10.0447 282 22.4355V327.564C282 339.955 273.046 350 262 350H20C8.95441 350 0.000176436 339.955 0 327.564V22.4355C0.00017275 10.0447 8.95441 0 20 0H262Z" fill="#102E44"/>
<path d="M262 0C273.046 0 282 10.0447 282 22.4355V327.564C282 339.955 273.046 350 262 350H20C8.95441 350 0.000176436 339.955 0 327.564V22.4355C0.00017275 10.0447 8.95441 0 20 0H262Z" stroke="#FAB84C"/>
</svg>
