<svg width="13" height="7" viewBox="0 0 13 7" fill="none" xmlns="http://www.w3.org/2000/svg">
<path d="M6.08195 6.82894L0.173161 0.996255C0.118261 0.942063 0.0747147 0.877728 0.0450029 0.806924C0.0152922 0.736119 -9.53674e-07 0.660231 -9.53674e-07 0.583592C-9.53674e-07 0.506954 0.0152922 0.431066 0.0450029 0.360261C0.0747147 0.289456 0.118261 0.225122 0.173161 0.17093C0.228059 0.116738 0.293234 0.0737513 0.364963 0.0444231C0.43669 0.0150948 0.513569 0 0.591208 0C0.668846 0 0.745725 0.0150948 0.817453 0.0444231C0.889182 0.0737513 0.954356 0.116738 1.00926 0.17093L6.5 5.59168L11.9907 0.17093C12.1016 0.0614851 12.252 -1.15319e-09 12.4088 0C12.5656 1.15319e-09 12.716 0.0614851 12.8268 0.17093C12.9377 0.280375 13 0.428814 13 0.583592C13 0.738371 12.9377 0.88681 12.8268 0.996255L6.91805 6.82894C6.86317 6.88317 6.798 6.92619 6.72627 6.95554C6.65454 6.98489 6.57765 7 6.5 7C6.42235 7 6.34546 6.98489 6.27373 6.95554C6.202 6.92619 6.13683 6.88317 6.08195 6.82894Z" fill="black"/>
</svg>
