<svg width="19" height="21" viewBox="0 0 19 21" fill="none" xmlns="http://www.w3.org/2000/svg">
<path d="M17.4167 7H14.25V4.66667C14.25 3.42899 13.7496 2.242 12.8588 1.36683C11.968 0.491665 10.7598 0 9.5 0C8.24022 0 7.03204 0.491665 6.14124 1.36683C5.25045 2.242 4.75 3.42899 4.75 4.66667V7H1.58333C1.16341 7 0.76068 7.16389 0.463748 7.45561C0.166815 7.74734 0 8.143 0 8.55556V19.4444C0 19.857 0.166815 20.2527 0.463748 20.5444C0.76068 20.8361 1.16341 21 1.58333 21H17.4167C17.8366 21 18.2393 20.8361 18.5363 20.5444C18.8332 20.2527 19 19.857 19 19.4444V8.55556C19 8.143 18.8332 7.74734 18.5363 7.45561C18.2393 7.16389 17.8366 7 17.4167 7ZM6.33333 4.66667C6.33333 3.84155 6.66696 3.05023 7.26083 2.46678C7.85469 1.88333 8.66015 1.55556 9.5 1.55556C10.3399 1.55556 11.1453 1.88333 11.7392 2.46678C12.333 3.05023 12.6667 3.84155 12.6667 4.66667V7H6.33333V4.66667ZM17.4167 19.4444H1.58333V8.55556H17.4167V19.4444ZM10.6875 14C10.6875 14.2307 10.6179 14.4563 10.4874 14.6482C10.3569 14.84 10.1714 14.9896 9.95444 15.0779C9.73745 15.1662 9.49868 15.1893 9.26833 15.1442C9.03798 15.0992 8.82639 14.9881 8.66031 14.825C8.49424 14.6618 8.38114 14.4539 8.33532 14.2276C8.2895 14.0013 8.31301 13.7667 8.40289 13.5535C8.49277 13.3404 8.64498 13.1581 8.84026 13.03C9.03554 12.9018 9.26513 12.8333 9.5 12.8333C9.81495 12.8333 10.117 12.9563 10.3397 13.175C10.5624 13.3938 10.6875 13.6906 10.6875 14Z" fill="#3D6A8A"/>
</svg>
