<svg width="46" height="49" viewBox="0 0 46 49" fill="none" xmlns="http://www.w3.org/2000/svg">
<rect width="46" height="49" rx="23" fill="#EFE69A" fill-opacity="0.3"/>
<path d="M35.705 31.1849C34.9533 29.8519 33.8359 26.0804 33.8359 21.1543C33.8359 18.196 32.6943 15.3589 30.6623 13.267C28.6303 11.1752 25.8744 10 23.0007 10C20.127 10 17.371 11.1752 15.339 13.267C13.307 15.3589 12.1655 18.196 12.1655 21.1543C12.1655 26.0818 11.0467 29.8519 10.295 31.1849C10.1031 31.5237 10.0013 31.9087 10 32.301C9.9987 32.6933 10.0979 33.079 10.2876 33.4192C10.4773 33.7594 10.7508 34.0421 11.0805 34.2388C11.4102 34.4355 11.7844 34.5392 12.1655 34.5395H17.6928C17.9428 35.7988 18.6076 36.9305 19.5748 37.7433C20.542 38.5561 21.7522 39 23.0007 39C24.2492 39 25.4594 38.5561 26.4266 37.7433C27.3938 36.9305 28.0586 35.7988 28.3086 34.5395H33.8359C34.2168 34.539 34.5909 34.4351 34.9204 34.2383C35.2499 34.0415 35.5232 33.7588 35.7127 33.4186C35.9023 33.0784 36.0014 32.6928 36 32.3007C35.9986 31.9085 35.8969 31.5236 35.705 31.1849ZM23.0007 36.7704C22.3286 36.7702 21.6732 36.5555 21.1246 36.156C20.5759 35.7565 20.161 35.1918 19.937 34.5395H26.0643C25.8403 35.1918 25.4254 35.7565 24.8768 36.156C24.3281 36.5555 23.6727 36.7702 23.0007 36.7704ZM12.1655 32.3087C13.2084 30.4626 14.3325 26.1849 14.3325 21.1543C14.3325 18.7877 15.2458 16.518 16.8714 14.8445C18.497 13.171 20.7017 12.2309 23.0007 12.2309C25.2996 12.2309 27.5044 13.171 29.13 14.8445C30.7556 16.518 31.6688 18.7877 31.6688 21.1543C31.6688 26.1807 32.7903 30.4584 33.8359 32.3087H12.1655Z" fill="#FAB84C" stroke="#FAB84C"/>
</svg>
