<svg width="24" height="24" viewBox="0 0 24 24" fill="none" xmlns="http://www.w3.org/2000/svg">
<g clip-path="url(#clip0_1476_1316)">
<path d="M12 0.974854C12.243 0.974961 12.4813 1.04396 12.6865 1.17407C12.8406 1.27175 12.9717 1.40079 13.0713 1.552L13.1641 1.71899L15.8818 7.20435V7.20532L15.8975 7.23755L15.9189 7.28345L15.9492 7.32349L15.9551 7.33032L16.0732 7.48853L16.2686 7.52271L16.3086 7.52954L16.3213 7.53149L22.3135 8.42017L22.3262 8.42114L22.3389 8.4231C22.5831 8.44711 22.8152 8.54062 23.0078 8.69263C23.2005 8.84465 23.3456 9.04855 23.4258 9.28052C23.5059 9.51262 23.5178 9.76356 23.46 10.0022C23.4021 10.2407 23.277 10.4577 23.0996 10.6272L23.0977 10.6292L18.7275 14.8469L18.665 14.8997L18.6221 14.969L18.6084 14.9915L18.5723 15.05L18.5537 15.1165C18.5375 15.1733 18.5315 15.2319 18.5342 15.2903V15.3254L18.541 15.3674L19.5869 21.4875V21.4885C19.6287 21.7281 19.6032 21.9751 19.5117 22.2004C19.4203 22.4258 19.2672 22.6212 19.0703 22.7639C18.8734 22.9065 18.64 22.9904 18.3975 23.0071C18.1548 23.0237 17.9119 22.9721 17.6973 22.8577L17.6953 22.8567L12.2959 20.0042L12.2695 19.9905L12.2422 19.9797L12.123 19.9456C12.0017 19.923 11.8755 19.9347 11.7588 19.9797L11.7314 19.9905L11.7051 20.0042L6.30469 22.8586C6.09003 22.9723 5.84777 23.024 5.60547 23.0071C5.363 22.99 5.12937 22.9047 4.93262 22.762C4.73611 22.6193 4.58365 22.4244 4.49219 22.1995C4.40079 21.9745 4.3736 21.7262 4.41504 21.4866V21.4856L5.46094 15.3684L5.46875 15.3274V15.2776C5.46937 15.2382 5.46576 15.199 5.45801 15.1604L5.44043 15.095L5.41504 15.0315C5.38575 14.9701 5.34567 14.9143 5.2959 14.8674L5.28418 14.8567L5.27344 14.8469L0.90332 10.6301L0.900391 10.6282C0.722674 10.4587 0.597149 10.2418 0.539062 10.0032C0.480996 9.76443 0.49314 9.51377 0.573242 9.28149C0.653366 9.0493 0.798387 8.84477 0.991211 8.69263C1.18422 8.54045 1.41747 8.44685 1.66211 8.4231L1.6748 8.42114L1.68652 8.42017L7.66113 7.53345L7.66211 7.53442L7.69238 7.53052L7.75977 7.52271L7.82324 7.49829L7.83203 7.49438L8.00391 7.42603L8.08984 7.26196L8.11035 7.22192L8.11426 7.21313L10.8369 1.71899L10.8408 1.71021C10.9446 1.4904 11.1092 1.30423 11.3145 1.17407C11.5195 1.04413 11.7572 0.975074 12 0.974854Z" fill="#FAB84C" stroke="#FAB84C"/>
</g>
<defs>
<clipPath id="clip0_1476_1316">
<rect width="24" height="24" fill="white"/>
</clipPath>
</defs>
</svg>
