<svg width="40" height="40" viewBox="0 0 40 40" fill="none" xmlns="http://www.w3.org/2000/svg">
<g clip-path="url(#clip0_2163_1404)">
<path fill-rule="evenodd" clip-rule="evenodd" d="M7.28753 11.4583C7.28788 10.1246 7.6439 8.81503 8.31889 7.66468C8.99388 6.51433 9.96343 5.56479 11.1276 4.91392C12.2918 4.26306 13.6085 3.93442 14.9419 3.96188C16.2754 3.98934 17.5774 4.3719 18.7138 5.07013C19.8502 5.76837 20.7799 6.75702 21.4069 7.93418C22.034 9.11134 22.3358 10.4344 22.2813 11.7671C22.2267 13.0997 21.8177 14.3937 21.0966 15.5157C20.3754 16.6376 19.368 17.547 18.1784 18.15C17.8857 18.2985 17.6434 18.5301 17.4819 18.8157C17.3203 19.1013 17.2467 19.4283 17.2702 19.7556C17.2937 20.0829 17.4133 20.396 17.614 20.6556C17.8147 20.9152 18.0875 21.1098 18.3984 21.215C19.3008 21.5206 20.1602 21.9413 20.955 22.4667C21.1376 22.5885 21.3423 22.673 21.5576 22.7155C21.7729 22.758 21.9944 22.7575 22.2095 22.7141C22.4246 22.6708 22.6291 22.5854 22.8111 22.4628C22.9931 22.3402 23.1491 22.1829 23.2702 21.9999C23.3912 21.8169 23.475 21.6118 23.5166 21.3964C23.5582 21.1809 23.5569 20.9594 23.5126 20.7444C23.4684 20.5295 23.3822 20.3254 23.2589 20.1439C23.1356 19.9624 22.9777 19.807 22.7942 19.6867C22.6086 19.5639 22.4203 19.4453 22.2292 19.3308C23.3019 18.3196 24.1562 17.0994 24.7395 15.7455C25.3228 14.3916 25.6228 12.9326 25.6209 11.4583C25.6209 5.475 20.7709 0.625 14.7875 0.625C8.8042 0.625 3.9542 5.475 3.9542 11.4583C3.95227 12.9332 4.25244 14.3928 4.83618 15.7471C5.41993 17.1015 6.27489 18.322 7.34836 19.3333C3.9467 21.365 1.4667 24.7517 0.705865 28.75C0.492532 29.865 0.699198 30.9917 1.35086 31.8967C2.00336 32.8033 3.00836 33.3567 4.14253 33.5025C6.0092 33.7417 9.22503 33.9592 14.7909 33.9592C17.16 33.9592 19.1009 33.92 20.6909 33.8558C20.9125 33.8514 21.131 33.8028 21.3336 33.7128C21.5362 33.6229 21.7189 33.4935 21.8708 33.3321C22.0228 33.1707 22.141 32.9806 22.2187 32.773C22.2963 32.5654 22.3317 32.3443 22.3228 32.1228C22.3139 31.9013 22.261 31.6838 22.167 31.4831C22.073 31.2823 21.94 31.1023 21.7756 30.9536C21.6112 30.8048 21.4188 30.6904 21.2097 30.617C21.0005 30.5435 20.7788 30.5125 20.5575 30.5258C19.02 30.5867 17.1242 30.6258 14.7909 30.6258C9.29087 30.6258 6.23253 30.4092 4.56586 30.1958C4.25336 30.1558 4.11586 30.0317 4.0567 29.9492C3.99586 29.865 3.92003 29.69 3.98003 29.3742C4.7017 25.5825 7.48253 22.4692 11.1792 21.2167C11.4898 21.1113 11.7623 20.9166 11.9627 20.657C12.1632 20.3974 12.2825 20.0845 12.3059 19.7573C12.3293 19.4302 12.2557 19.1035 12.0943 18.818C11.9328 18.5325 11.6908 18.301 11.3984 18.1525C10.1614 17.5259 9.12232 16.5686 8.39663 15.387C7.67093 14.2054 7.28702 12.8458 7.28753 11.4592M26.2584 22.1783C27.3642 22.0117 29.015 21.875 31.4584 21.875C33.9017 21.875 35.5525 22.0125 36.6584 22.1783C38.2025 22.4117 39.1 23.6817 39.2192 25.1467C39.3222 26.4146 39.3741 27.6862 39.375 28.9583C39.375 32.8567 37.4875 36.6533 34.0067 38.5242C33.1217 38.9992 32.2025 39.375 31.4584 39.375C30.7134 39.375 29.7942 38.9992 28.91 38.5242C25.4284 36.6533 23.5417 32.8567 23.5417 28.9583C23.5417 27.4767 23.615 26.1583 23.6967 25.1467C23.8159 23.6817 24.7134 22.4108 26.2584 22.1783Z" fill="#0C1822"/>
</g>
<defs>
<clipPath id="clip0_2163_1404">
<rect width="40" height="40" fill="white"/>
</clipPath>
</defs>
</svg>
