<svg width="15" height="15" viewBox="0 0 15 15" fill="none" xmlns="http://www.w3.org/2000/svg">
<path d="M7.125 4.44922C7.7373 4.44918 8.33612 4.62902 8.84708 4.96641C9.35804 5.30379 9.75863 5.78384 9.9991 6.34694C10.2396 6.91005 10.3093 7.53139 10.1997 8.13379C10.09 8.73619 9.80584 9.29311 9.38239 9.73538C8.95894 10.1776 8.4149 10.4858 7.81783 10.6215C7.22076 10.7572 6.59698 10.7145 6.02396 10.4988C5.45094 10.283 4.95393 9.90364 4.59466 9.40782C4.23539 8.912 4.0297 8.32157 4.00313 7.70984L4 7.57422L4.00313 7.43859C4.03807 6.63406 4.38225 5.87408 4.96389 5.31713C5.54552 4.76018 6.31971 4.44927 7.125 4.44922Z" fill="#1C6506"/>
</svg>
