<svg version="1.2" xmlns="http://www.w3.org/2000/svg" viewBox="0 0 13 15" width="13" height="15">
	<style>
		.s0 { fill: #3d6a8a } 
	</style>
	<path class="s0" d="m12.83 3.05l-2.96-2.88q-0.08-0.08-0.19-0.13-0.11-0.04-0.23-0.04h-5.9c-0.32 0-0.62 0.12-0.84 0.34-0.22 0.21-0.35 0.51-0.35 0.81v1.16h-1.18c-0.31 0-0.61 0.12-0.83 0.34-0.23 0.21-0.35 0.51-0.35 0.81v10.39c0 0.3 0.12 0.6 0.35 0.81 0.22 0.22 0.52 0.34 0.83 0.34h8.27c0.32 0 0.62-0.12 0.84-0.34 0.22-0.21 0.35-0.51 0.35-0.81v-1.16h1.18c0.31 0 0.61-0.12 0.83-0.34 0.23-0.21 0.35-0.51 0.35-0.81v-8.08q0-0.11-0.04-0.22-0.05-0.11-0.13-0.19zm-3.38 10.8h-8.27v-10.39h5.67l2.6 2.55v6.09q0 0.01 0 0.02 0 0 0 0.01zm2.37-2.31h-1.18v-5.77q0-0.11-0.05-0.22-0.04-0.11-0.13-0.19l-2.95-2.88q-0.08-0.08-0.19-0.13-0.11-0.04-0.23-0.04h-3.54v-1.16h5.66l2.61 2.55zm-4.14-2.31q0 0.24-0.17 0.41-0.18 0.17-0.42 0.17h-3.54q-0.25 0-0.42-0.17-0.17-0.17-0.18-0.41 0.01-0.23 0.18-0.4 0.17-0.17 0.42-0.17h3.54q0.24 0 0.42 0.17 0.17 0.17 0.17 0.4zm0 2.31q0 0.24-0.17 0.41-0.18 0.16-0.42 0.17h-3.54q-0.25-0.01-0.42-0.17-0.17-0.17-0.18-0.41 0.01-0.24 0.18-0.41 0.17-0.16 0.42-0.17h3.54q0.24 0.01 0.42 0.17 0.17 0.17 0.17 0.41z"/>
</svg>