<svg width="39" height="39" viewBox="0 0 39 39" fill="none" xmlns="http://www.w3.org/2000/svg">
<path d="M24.0066 28.5C20.427 28.496 16.9952 27.0724 14.4641 24.5416C11.933 22.0107 10.5092 18.5792 10.5053 15C10.505 13.9596 10.8652 12.9512 11.5247 12.1465C12.1842 11.3418 13.1022 10.7904 14.1225 10.5863L16.2752 14.8987L14.4431 17.625C14.3062 17.8303 14.2221 18.0663 14.1982 18.3119C14.1744 18.5575 14.2115 18.8053 14.3063 19.0331C15.3796 21.5838 17.409 23.613 19.9599 24.6863C20.1885 24.7852 20.4381 24.8258 20.6863 24.8042C20.9344 24.7826 21.1733 24.6995 21.3813 24.5625L24.1209 22.7362L28.4339 24.8888C28.2281 25.9101 27.6742 26.8284 26.8668 27.487C26.0594 28.1456 25.0485 28.5036 24.0066 28.5Z" fill="black"/>
<path fill-rule="evenodd" clip-rule="evenodd" d="M9.89893 2.52793C12.8294 0.870165 16.1392 -0.000734177 19.5061 4.64391e-07C22.4685 0.00121543 25.3917 0.677228 28.0538 1.97673C30.7159 3.27623 33.0469 5.16506 34.8699 7.49984C36.6929 9.83463 37.9601 12.554 38.5751 15.4516C39.1901 18.3491 39.1369 21.3487 38.4194 24.2226C37.702 27.0965 36.3392 29.7693 34.4344 32.0379C32.5297 34.3065 30.1332 36.1115 27.4266 37.3157C24.7201 38.52 21.7748 39.0919 18.8142 38.988C15.8537 38.8841 12.9557 38.1072 10.3402 36.7163L3.95526 38.8444C3.42662 39.0207 2.85933 39.0462 2.31697 38.9183C1.7746 38.7903 1.27861 38.5138 0.884562 38.1198C0.490519 37.7258 0.214005 37.2298 0.0860105 36.6875C-0.0419837 36.1452 -0.0163991 35.578 0.159897 35.0494L2.28823 28.665C0.705761 25.6934 -0.0803246 22.3627 0.00648427 18.9972C0.0932932 15.6317 1.05004 12.346 2.7836 9.45994C4.51715 6.57385 6.96846 4.18569 9.89893 2.52793ZM11.2441 33.7856C13.7551 35.2381 16.6052 36.002 19.5061 36C23.1391 35.9994 26.6704 34.8 29.5521 32.5879C32.4338 30.3758 34.5049 27.2746 35.4441 23.7654C36.3833 20.2562 36.138 16.5352 34.7464 13.1797C33.3548 9.82408 30.8945 7.02149 27.7474 5.20666C24.6003 3.39183 20.9421 2.6662 17.3405 3.14236C13.7388 3.61851 10.395 5.26981 7.82767 7.84011C5.26037 10.4104 3.61313 13.756 3.14149 17.3579C2.66984 20.9598 3.40015 24.6167 5.21913 27.7612C5.32544 27.9452 5.39145 28.1497 5.41279 28.3611C5.43412 28.5725 5.4103 28.786 5.34289 28.9875L3.00454 36L10.0177 33.66C10.2194 33.5929 10.433 33.5694 10.6444 33.591C10.8558 33.6127 11.0602 33.679 11.2441 33.7856Z" fill="black"/>
</svg>
